<svg width="216" height="139" viewBox="0 0 216 139" fill="none" xmlns="http://www.w3.org/2000/svg">
<path d="M76.7427 24H138.973C144.242 24 149.461 25.038 154.329 27.0547C159.198 29.0714 163.621 32.0273 167.347 35.7537C171.074 39.4801 174.029 43.9039 176.046 48.7726C178.062 53.6413 179.1 58.8594 179.099 64.1291V95.3628H36.6161V64.1291C36.6158 58.8594 37.6534 53.6413 39.6698 48.7726C41.6862 43.9039 44.6419 39.4801 48.368 35.7537C52.0941 32.0273 56.5178 29.0714 61.3863 27.0547C66.2549 25.038 71.473 24 76.7427 24Z" fill="white" stroke="black" stroke-width="4" stroke-miterlimit="10"/>
<path d="M174.335 115.499C173.1 115.813 171.88 115.264 171.577 114.259L166.797 98.3229C166.478 97.2664 167.29 96.1156 168.583 95.7838L169.92 95.4419C171.217 95.1102 172.472 95.7303 172.712 96.8122L176.154 113.077C176.376 114.116 175.57 115.182 174.335 115.499Z" fill="white" stroke="black" stroke-width="3.5" stroke-miterlimit="10"/>
<path d="M41.3802 115.499C42.6152 115.813 43.8324 115.264 44.1361 114.259L48.9181 98.3229C49.2345 97.2664 48.4231 96.1156 47.1319 95.7838L45.7947 95.4419C44.4984 95.1102 43.243 95.7303 43.0057 96.8122L39.5455 113.087C39.3388 114.116 40.1451 115.182 41.3802 115.499Z" fill="white" stroke="black" stroke-width="3.5" stroke-miterlimit="10"/>
<path d="M191.462 63.2258C191.379 60.6182 190.273 58.1481 188.383 56.3494C186.494 54.5507 183.972 53.5677 181.364 53.6129C178.755 53.6582 176.269 54.728 174.443 56.5912C172.617 58.4544 171.597 60.9614 171.605 63.5703C171.605 63.7361 171.605 63.902 171.617 64.0679C171.644 64.5974 171.644 65.128 171.617 65.6576C171.617 65.7903 171.617 65.9128 171.617 66.0582V86.7021H43.8528V66.0582C43.8528 65.923 43.8528 65.7903 43.8528 65.6576C43.826 65.1272 43.826 64.5957 43.8528 64.0653C43.8528 63.902 43.8681 63.7361 43.8681 63.5703C43.8669 62.0136 43.4998 60.4791 42.7966 59.0903C42.0934 57.7016 41.0737 56.4975 39.8197 55.5753C38.5657 54.653 37.1125 54.0384 35.5773 53.7809C34.0421 53.5234 32.4679 53.6303 30.9816 54.0929C29.4953 54.5555 28.1386 55.361 27.0207 56.4443C25.9029 57.5276 25.0552 58.8584 24.5462 60.3294C24.0372 61.8005 23.8809 63.3706 24.0901 64.9131C24.2993 66.4556 24.8681 67.9273 25.7505 69.2097C26.8202 70.7687 27.3899 72.6164 27.3836 74.5071V94.9366C27.3843 97.1199 28.2518 99.2136 29.7953 100.758C31.3389 102.302 33.4324 103.17 35.6157 103.171H179.842C180.923 103.171 181.994 102.958 182.994 102.544C183.993 102.13 184.901 101.523 185.665 100.758C186.43 99.9935 187.037 99.0854 187.45 98.0861C187.864 97.0867 188.077 96.0157 188.076 94.9341V74.5071C188.07 72.616 188.64 70.7679 189.712 69.2097C190.926 67.4565 191.541 65.3571 191.462 63.2258Z" fill="white" stroke="black" stroke-width="4" stroke-miterlimit="10"/>
<path d="M171.633 82.0171H44.08C41.5616 82.0171 39.52 84.0581 39.52 86.5758C39.52 89.0935 41.5616 91.1346 44.08 91.1346H171.633C174.151 91.1346 176.193 89.0935 176.193 86.5758C176.193 84.0581 174.151 82.0171 171.633 82.0171Z" fill="white" stroke="black" stroke-width="4" stroke-miterlimit="10"/>
<path d="M83.8467 63.3712C85.8846 63.3712 87.5366 61.7192 87.5366 59.6814C87.5366 57.6435 85.8846 55.9915 83.8467 55.9915C81.8089 55.9915 80.1569 57.6435 80.1569 59.6814C80.1569 61.7192 81.8089 63.3712 83.8467 63.3712Z" fill="black"/>
<path d="M131.866 63.3712C133.904 63.3712 135.556 61.7192 135.556 59.6814C135.556 57.6435 133.904 55.9915 131.866 55.9915C129.828 55.9915 128.176 57.6435 128.176 59.6814C128.176 61.7192 129.828 63.3712 131.866 63.3712Z" fill="black"/>
</svg>
