<svg width="125" height="125" viewBox="0 0 125 125" fill="none" xmlns="http://www.w3.org/2000/svg">
<path d="M119.141 107.422H109.375V21.4844C110.928 21.4797 112.415 20.8609 113.513 19.7631C114.611 18.6652 115.23 17.1776 115.234 15.625V5.85938C115.234 5.34137 115.029 4.84459 114.662 4.47831C114.296 4.11202 113.799 3.90625 113.281 3.90625H11.7188C11.2007 3.90625 10.704 4.11202 10.3377 4.47831C9.9714 4.84459 9.76562 5.34137 9.76562 5.85938V15.625C9.77026 17.1776 10.3891 18.6652 11.4869 19.7631C12.5848 20.8609 14.0724 21.4797 15.625 21.4844V107.422H5.85938C5.34137 107.422 4.84459 107.628 4.47831 107.994C4.11202 108.36 3.90625 108.857 3.90625 109.375V119.141C3.90625 119.659 4.11202 120.155 4.47831 120.522C4.84459 120.888 5.34137 121.094 5.85938 121.094H119.141C119.659 121.094 120.155 120.888 120.522 120.522C120.888 120.155 121.094 119.659 121.094 119.141V109.375C121.094 108.857 120.888 108.36 120.522 107.994C120.155 107.628 119.659 107.422 119.141 107.422ZM13.6719 15.625V7.8125H111.328V15.625C111.328 16.143 111.122 16.6398 110.756 17.0061C110.39 17.3723 109.893 17.5781 109.375 17.5781H15.625C15.107 17.5781 14.6102 17.3723 14.2439 17.0061C13.8777 16.6398 13.6719 16.143 13.6719 15.625ZM105.469 21.4844V107.422H19.5312V21.4844H105.469ZM117.188 117.188H7.8125V111.328H117.188V117.188Z" fill="black"/>
<path d="M101.562 23.4375H23.4375C22.9195 23.4375 22.4227 23.6433 22.0564 24.0096C21.6902 24.3758 21.4844 24.8726 21.4844 25.3906V103.516C21.4844 104.034 21.6902 104.53 22.0564 104.897C22.4227 105.263 22.9195 105.469 23.4375 105.469H101.562C102.08 105.469 102.577 105.263 102.944 104.897C103.31 104.53 103.516 104.034 103.516 103.516V25.3906C103.516 24.8726 103.31 24.3758 102.944 24.0096C102.577 23.6433 102.08 23.4375 101.562 23.4375ZM60.5469 101.562H25.3906V64.4531H60.5469V101.562ZM60.5469 60.5469H25.3906V27.3438H60.5469V60.5469ZM99.6094 101.562H64.4531V64.4531H99.6094V101.562ZM99.6094 60.5469H64.4531V27.3438H99.6094V60.5469Z" fill="black"/>
<path d="M29.8624 39.6337L37.6751 31.821L40.4373 34.5831L32.6246 42.3958L29.8624 39.6337Z" fill="black"/>
<path d="M29.8625 49.3992L47.4381 31.8236L50.1998 34.5853L32.6243 52.1609L29.8625 49.3992Z" fill="black"/>
</svg>
