<svg width="156" height="156" viewBox="0 0 156 156" fill="none" xmlns="http://www.w3.org/2000/svg">
<path d="M77.881 28.8009C82.8153 28.8009 87.7013 29.773 92.2598 31.6617C96.8183 33.5504 100.96 36.3186 104.448 39.8083C107.937 43.298 110.704 47.4408 112.591 52C114.478 56.5592 115.448 61.4455 115.446 66.3798V105.366H40.3186V66.3798C40.3168 61.4457 41.287 56.5596 43.1739 52.0006C45.0607 47.4416 47.8272 43.299 51.3154 39.8093C54.8035 36.3196 58.945 33.5513 63.5031 31.6625C68.0613 29.7736 72.947 28.8013 77.881 28.8009Z" fill="white" stroke="black" stroke-width="4" stroke-miterlimit="10"/>
<path d="M110.68 126.97C109.355 127.306 108.046 126.718 107.723 125.639L102.579 108.542C102.236 107.408 103.107 106.174 104.495 105.818L105.93 105.451C107.321 105.095 108.668 105.76 108.922 106.921L112.618 124.372C112.87 125.486 111.991 126.63 110.68 126.97Z" fill="white" stroke="black" stroke-width="3.5" stroke-miterlimit="10"/>
<path d="M45.096 126.97C46.4211 127.306 47.727 126.718 48.0528 125.639L53.1861 108.542C53.5256 107.408 52.655 106.174 51.2697 105.818L49.8351 105.451C48.4443 105.095 47.0973 105.76 46.8427 106.921L43.1467 124.372C42.903 125.486 43.7709 126.63 45.096 126.97Z" fill="white" stroke="black" stroke-width="3.5" stroke-miterlimit="10"/>
<path d="M128.576 70.544C128.468 69.1349 128.078 67.7619 127.43 66.5062C126.781 65.2505 125.888 64.1376 124.801 63.2333C123.715 62.3291 122.459 61.6519 121.106 61.2418C119.754 60.8316 118.333 60.6969 116.928 60.8457C115.522 60.9944 114.161 61.4234 112.924 62.1075C111.688 62.7916 110.601 63.7167 109.728 64.8283C108.855 65.9398 108.214 67.2151 107.843 68.5787C107.472 69.9423 107.378 71.3665 107.567 72.767C107.505 73.1868 107.474 73.6104 107.474 74.0346V91.8302C107.474 92.3768 107.367 92.9181 107.158 93.4232C106.949 93.9282 106.642 94.3871 106.256 94.7736C105.869 95.1601 105.41 95.4666 104.905 95.6756C104.4 95.8847 103.859 95.9921 103.312 95.9917H52.4468C51.345 95.9917 50.2882 95.5548 49.5081 94.7767C48.728 93.9986 48.2883 92.943 48.2854 91.8412V74.0456C48.2858 73.6214 48.2556 73.1978 48.195 72.778C48.2538 72.324 48.284 71.8668 48.2854 71.4091C48.2861 69.7541 47.8981 68.122 47.1527 66.6444C46.4072 65.1667 45.3252 63.8848 43.9936 62.9019C42.662 61.919 41.1182 61.2626 39.4866 60.9856C37.8549 60.7085 36.1809 60.8186 34.5996 61.3069C33.0182 61.7952 31.5737 62.648 30.3823 63.7968C29.1909 64.9456 28.2859 66.3581 27.7403 67.9207C27.1948 69.4832 27.0238 71.152 27.2413 72.7927C27.4587 74.4334 28.0584 76.0001 28.9922 77.3665C30.1424 79.05 30.7579 81.0414 30.7581 83.0803V104.764C30.7581 107.087 31.6811 109.315 33.3241 110.958C34.9671 112.601 37.1954 113.524 39.519 113.524H116.237C118.561 113.524 120.789 112.601 122.432 110.958C124.075 109.315 124.998 107.087 124.998 104.764V83.0803C124.996 81.0364 125.613 79.0398 126.767 77.3528C128.133 75.3579 128.772 72.9539 128.576 70.544Z" fill="white" stroke="black" stroke-width="4" stroke-miterlimit="10"/>
<path d="M107.088 90.8282H48.6744C45.9724 90.8282 43.782 93.0181 43.782 95.7193C43.782 98.4206 45.9724 100.61 48.6744 100.61H107.088C109.79 100.61 111.98 98.4206 111.98 95.7193C111.98 93.0181 109.79 90.8282 107.088 90.8282Z" fill="white" stroke="black" stroke-width="4" stroke-miterlimit="10"/>
<path d="M77.881 71.0423C80.0674 71.0423 81.8398 69.2698 81.8398 67.0834C81.8398 64.897 80.0674 63.1246 77.881 63.1246C75.6946 63.1246 73.9221 64.897 73.9221 67.0834C73.9221 69.2698 75.6946 71.0423 77.881 71.0423Z" fill="black"/>
</svg>
