<svg width="176" height="176" viewBox="0 0 176 176" fill="none" xmlns="http://www.w3.org/2000/svg">
<path d="M57.0521 39.944H118.933C128.363 39.944 137.407 43.6901 144.075 50.3582C150.743 57.0262 154.489 66.0701 154.489 75.5002V97.0664C154.489 99.583 153.489 101.997 151.71 103.776C149.93 105.556 147.516 106.556 145 106.556H30.9801C28.4634 106.556 26.0498 105.556 24.2703 103.776C22.4907 101.997 21.491 99.583 21.491 97.0664V75.5102C21.4897 70.8396 22.4085 66.2145 24.1951 61.8992C25.9817 57.5838 28.601 53.6628 31.9033 50.3599C35.2057 47.0571 39.1264 44.4373 43.4415 42.6501C47.7566 40.8629 52.3815 39.9434 57.0521 39.944Z" fill="white" stroke="black" stroke-width="4" stroke-miterlimit="10"/>
<path d="M151.718 135.961C150.535 136.263 149.365 135.736 149.075 134.77L144.492 119.518C144.187 118.505 144.967 117.402 146.21 117.085L147.49 116.757C148.74 116.44 149.945 117.035 150.165 118.07L153.466 133.66C153.676 134.64 152.903 135.663 151.718 135.961Z" fill="white" stroke="black" stroke-width="3.5" stroke-miterlimit="10"/>
<path d="M24.2687 135.961C25.4515 136.263 26.6192 135.736 26.9092 134.77L31.495 119.518C31.7975 118.505 31.0199 117.402 29.7772 117.085L28.4945 116.757C27.2443 116.44 26.0391 117.035 25.8215 118.07L22.5184 133.66C22.3109 134.64 23.086 135.663 24.2687 135.961Z" fill="white" stroke="black" stroke-width="3.5" stroke-miterlimit="10"/>
<path d="M58.9171 56.9095C64.7098 56.9095 70.2652 59.2106 74.3612 63.3066C78.4573 67.4027 80.7584 72.9581 80.7584 78.7507V107.456H37.0884V78.7507C37.0884 72.9603 39.3878 67.4067 43.4811 63.3111C47.5744 59.2154 53.1266 56.9128 58.9171 56.9095Z" fill="white" stroke="black" stroke-width="4" stroke-miterlimit="10"/>
<path d="M117.068 56.9095C122.86 56.9095 128.416 59.2106 132.512 63.3066C136.608 67.4027 138.909 72.9581 138.909 78.7507V107.456H95.2288V78.7507C95.2288 72.9585 97.5295 67.4035 101.625 63.3075C105.721 59.2116 111.275 56.9101 117.068 56.9095Z" fill="white" stroke="black" stroke-width="4" stroke-miterlimit="10"/>
<path d="M156.754 86.5571H19.2304C14.6678 86.5571 10.969 90.2558 10.969 94.8185V115.45C10.969 120.012 14.6678 123.711 19.2304 123.711H156.754C161.317 123.711 165.016 120.012 165.016 115.45V94.8185C165.016 90.2558 161.317 86.5571 156.754 86.5571Z" fill="white" stroke="black" stroke-width="4" stroke-miterlimit="10"/>
<path d="M154.239 77.8156H21.7482C19.3343 77.8156 17.3774 79.7724 17.3774 82.1863C17.3774 84.6002 19.3343 86.5571 21.7482 86.5571H154.239C156.652 86.5571 158.609 84.6002 158.609 82.1863C158.609 79.7724 156.652 77.8156 154.239 77.8156Z" fill="white" stroke="black" stroke-width="4" stroke-miterlimit="10"/>
<path d="M41.6394 108.993C43.5935 108.993 45.1775 107.409 45.1775 105.455C45.1775 103.501 43.5935 101.917 41.6394 101.917C39.6854 101.917 38.1013 103.501 38.1013 105.455C38.1013 107.409 39.6854 108.993 41.6394 108.993Z" fill="black"/>
<path d="M87.6724 108.993C89.6264 108.993 91.2105 107.409 91.2105 105.455C91.2105 103.501 89.6264 101.917 87.6724 101.917C85.7183 101.917 84.1343 103.501 84.1343 105.455C84.1343 107.409 85.7183 108.993 87.6724 108.993Z" fill="black"/>
<path d="M132.715 108.993C134.669 108.993 136.253 107.409 136.253 105.455C136.253 103.501 134.669 101.917 132.715 101.917C130.761 101.917 129.177 103.501 129.177 105.455C129.177 107.409 130.761 108.993 132.715 108.993Z" fill="black"/>
</svg>
