<svg width="141" height="141" viewBox="0 0 141 141" fill="none" xmlns="http://www.w3.org/2000/svg">
<path d="M84.036 65.0017H47.968C45.9571 65.0017 44.3269 66.6319 44.3269 68.6428C44.3269 70.6538 45.9571 72.284 47.968 72.284H84.036C86.047 72.284 87.6772 70.6538 87.6772 68.6428C87.6772 66.6319 86.047 65.0017 84.036 65.0017Z" fill="white" stroke="black" stroke-width="3.5" stroke-miterlimit="10"/>
<path d="M88.5637 82.8538H49.2312V90.9278H88.5637V82.8538Z" fill="white" stroke="black" stroke-width="4" stroke-miterlimit="10"/>
<path d="M97.7035 129.855C96.2635 130.071 94.7491 128.039 94.2828 125.261L86.898 81.3343C86.4086 78.4157 87.2567 75.8098 88.7711 75.5818L90.3316 75.3486C91.846 75.1231 93.4218 77.3652 93.8087 80.2965L99.6279 124.462C100.01 127.252 99.1436 129.64 97.7035 129.855Z" fill="white" stroke="black" stroke-width="3.5" stroke-miterlimit="10"/>
<path d="M40.6447 129.855C42.0848 130.071 43.5991 128.039 44.0655 125.261L51.4477 81.3343C51.9371 78.4157 51.089 75.8098 49.5746 75.5818L48.0141 75.3486C46.4997 75.1231 44.9239 77.3652 44.537 80.2965L38.7178 124.462C38.3514 127.252 39.2021 129.64 40.6447 129.855Z" fill="white" stroke="black" stroke-width="3.5" stroke-miterlimit="10"/>
<path d="M99.3769 10.9792C98.4763 10.8491 97.5605 11.0753 96.8241 11.6097C96.0877 12.1442 95.5888 12.9448 95.4334 13.8413L84.5791 72.4224H45.2569C44.5623 72.407 43.8715 72.5305 43.2252 72.7857C42.579 73.0409 41.9902 73.4226 41.4934 73.9085C40.9967 74.3943 40.602 74.9745 40.3326 75.615C40.0631 76.2554 39.9243 76.9433 39.9243 77.6381C39.9243 78.3329 40.0631 79.0208 40.3326 79.6612C40.602 80.3017 40.9967 80.8819 41.4934 81.3677C41.9902 81.8536 42.579 82.2353 43.2252 82.4905C43.8715 82.7457 44.5623 82.8692 45.2569 82.8538H88.456C89.7821 82.853 91.0579 82.3465 92.0235 81.4376C92.989 80.5287 93.5716 79.2858 93.6525 77.9622C93.8813 77.287 94.0435 76.591 94.1368 75.8841L102.242 14.9252C102.372 14.024 102.145 13.1075 101.61 12.3707C101.075 11.6338 100.274 11.1346 99.3769 10.9792Z" fill="white" stroke="black" stroke-width="4" stroke-miterlimit="10"/>
</svg>
