<svg width="152" height="143" viewBox="0 0 152 143" fill="none" xmlns="http://www.w3.org/2000/svg">
<path d="M140.032 75.9453H12.1642C6.89947 75.9453 2.63159 80.2132 2.63159 85.4779V101.459C2.63159 106.724 6.89947 110.992 12.1642 110.992H140.032C145.297 110.992 149.565 106.724 149.565 101.459V85.4779C149.565 80.2132 145.297 75.9453 140.032 75.9453Z" fill="white" stroke="black" stroke-width="4" stroke-miterlimit="10"/>
<path d="M138.701 29.4316H13.495C7.49532 29.4316 2.63159 34.2954 2.63159 40.2951V82.6024C2.63159 88.6021 7.49532 93.4659 13.495 93.4659H138.701C144.701 93.4659 149.565 88.6021 149.565 82.6024V40.2951C149.565 34.2954 144.701 29.4316 138.701 29.4316Z" fill="white" stroke="black" stroke-width="4" stroke-miterlimit="10"/>
<path d="M24.6846 51.9896C26.5487 51.9896 28.0599 50.4784 28.0599 48.6143C28.0599 46.7502 26.5487 45.239 24.6846 45.239C22.8205 45.239 21.3093 46.7502 21.3093 48.6143C21.3093 50.4784 22.8205 51.9896 24.6846 51.9896Z" fill="black"/>
<path d="M24.6846 77.661C26.5487 77.661 28.0599 76.1498 28.0599 74.2857C28.0599 72.4216 26.5487 70.9104 24.6846 70.9104C22.8205 70.9104 21.3093 72.4216 21.3093 74.2857C21.3093 76.1498 22.8205 77.661 24.6846 77.661Z" fill="black"/>
<path d="M127.512 51.9896C129.376 51.9896 130.887 50.4784 130.887 48.6143C130.887 46.7502 129.376 45.239 127.512 45.239C125.648 45.239 124.136 46.7502 124.136 48.6143C124.136 50.4784 125.648 51.9896 127.512 51.9896Z" fill="black"/>
<path d="M127.512 77.661C129.376 77.661 130.887 76.1498 130.887 74.2857C130.887 72.4216 129.376 70.9104 127.512 70.9104C125.648 70.9104 124.136 72.4216 124.136 74.2857C124.136 76.1498 125.648 77.661 127.512 77.661Z" fill="black"/>
<path d="M93.0479 51.9896C94.912 51.9896 96.4232 50.4784 96.4232 48.6143C96.4232 46.7502 94.912 45.239 93.0479 45.239C91.1838 45.239 89.6726 46.7502 89.6726 48.6143C89.6726 50.4784 91.1838 51.9896 93.0479 51.9896Z" fill="black"/>
<path d="M93.0479 77.661C94.912 77.661 96.4232 76.1498 96.4232 74.2857C96.4232 72.4216 94.912 70.9104 93.0479 70.9104C91.1838 70.9104 89.6726 72.4216 89.6726 74.2857C89.6726 76.1498 91.1838 77.661 93.0479 77.661Z" fill="black"/>
<path d="M58.1836 51.9896C60.0478 51.9896 61.5589 50.4784 61.5589 48.6143C61.5589 46.7502 60.0478 45.239 58.1836 45.239C56.3195 45.239 54.8083 46.7502 54.8083 48.6143C54.8083 50.4784 56.3195 51.9896 58.1836 51.9896Z" fill="black"/>
<path d="M58.1836 77.661C60.0478 77.661 61.5589 76.1498 61.5589 74.2857C61.5589 72.4216 60.0478 70.9104 58.1836 70.9104C56.3195 70.9104 54.8083 72.4216 54.8083 74.2857C54.8083 76.1498 56.3195 77.661 58.1836 77.661Z" fill="black"/>
<path d="M2.63159 102.178H149.565" stroke="black" stroke-width="3.5" stroke-miterlimit="10"/>
</svg>
