<svg width="117" height="117" viewBox="0 0 117 117" fill="none" xmlns="http://www.w3.org/2000/svg">
<path d="M94.002 93.8627C92.529 94.2382 91.0746 93.5983 90.7149 92.3844L85.0133 73.3995C84.6352 72.1407 85.6031 70.755 87.1501 70.3715L88.7368 69.9643C90.2839 69.5702 91.7912 70.3107 92.0636 71.5986L96.1705 90.9881C96.435 92.2152 95.4724 93.4846 94.002 93.8627Z" fill="white" stroke="black" stroke-width="3.5" stroke-miterlimit="10"/>
<path d="M21.1328 93.8627C22.6058 94.2382 24.0576 93.5983 24.4199 92.3844L30.1241 73.3995C30.5023 72.1407 29.5344 70.755 27.99 70.3715L26.4033 69.9643C24.8589 69.5702 23.3515 70.3107 23.0791 71.5986L18.9722 90.9881C18.7104 92.2152 19.6704 93.4846 21.1328 93.8627Z" fill="white" stroke="black" stroke-width="3.5" stroke-miterlimit="10"/>
<path d="M96.422 68.0576H20.4108C17.4094 68.0576 14.9763 70.4907 14.9763 73.492C14.9763 76.4934 17.4094 78.9265 20.4108 78.9265H96.422C99.4233 78.9265 101.856 76.4934 101.856 73.492C101.856 70.4907 99.4233 68.0576 96.422 68.0576Z" fill="white" stroke="black" stroke-width="4" stroke-miterlimit="10"/>
<path d="M38.5152 23.1141H78.3151C85.4284 23.1141 92.2503 25.9398 97.2802 30.9697C102.31 35.9995 105.136 42.8214 105.136 49.9347V58.7013C105.136 59.9296 104.894 61.1459 104.424 62.2807C103.954 63.4156 103.265 64.4467 102.396 65.3153C101.528 66.1838 100.496 66.8728 99.3616 67.3429C98.2267 67.813 97.0104 68.0549 95.7821 68.0549H21.0482C19.8199 68.0549 18.6036 67.813 17.4687 67.3429C16.3339 66.8728 15.3028 66.1838 14.4342 65.3153C13.5656 64.4467 12.8766 63.4156 12.4066 62.2807C11.9365 61.1459 11.6946 59.9296 11.6946 58.7013V49.9347C11.6946 42.8214 14.5203 35.9995 19.5502 30.9697C24.58 25.9398 31.4019 23.1141 38.5152 23.1141Z" fill="white" stroke="black" stroke-width="4" stroke-miterlimit="10"/>
<path d="M59.2586 51.1883C61.6889 51.1883 63.6591 49.2181 63.6591 46.7878C63.6591 44.3575 61.6889 42.3873 59.2586 42.3873C56.8283 42.3873 54.8582 44.3575 54.8582 46.7878C54.8582 49.2181 56.8283 51.1883 59.2586 51.1883Z" fill="black"/>
</svg>
