<svg width="163" height="163" viewBox="0 0 163 163" fill="none" xmlns="http://www.w3.org/2000/svg">
<path d="M92.5114 32.6924H28.6624C28.663 43.7556 33.0581 54.3654 40.8809 62.1882C48.7037 70.011 59.3135 74.4061 70.3766 74.4067H86.6083C88.1739 74.4067 89.6754 75.0287 90.7825 76.1357C91.8895 77.2428 92.5114 78.7442 92.5114 80.3098V96.5537C92.516 107.613 96.9126 118.219 104.735 126.037C112.557 133.856 123.164 138.248 134.223 138.248V39.3173C134.223 37.5607 133.526 35.876 132.284 34.6337C131.042 33.3913 129.357 32.6931 127.601 32.6924H92.5114Z" fill="white" stroke="black" stroke-width="4" stroke-miterlimit="10"/>
<path d="M134.223 32.6924H104.908C104.907 36.5424 105.665 40.3548 107.139 43.9118C108.612 47.4688 110.771 50.7008 113.493 53.4233C116.215 56.1457 119.447 58.3053 123.004 59.7787C126.561 61.2521 130.373 62.0105 134.223 62.0105V32.6924Z" fill="white" stroke="black" stroke-width="4" stroke-miterlimit="10"/>
<path d="M66.1267 51.0211C68.5336 51.0211 70.9168 50.547 73.1404 49.6258C75.364 48.7047 77.3844 47.3546 79.0862 45.6526C80.788 43.9506 82.1378 41.93 83.0586 39.7063C83.9795 37.4826 84.4533 35.0993 84.4529 32.6924H47.8054C47.8054 37.5522 49.7355 42.2131 53.1712 45.6502C56.6069 49.0872 61.267 51.0191 66.1267 51.0211Z" fill="white" stroke="black" stroke-width="4" stroke-miterlimit="10"/>
<path d="M115.897 103.803C115.897 108.663 117.828 113.325 121.265 116.761C124.701 120.198 129.363 122.129 134.223 122.129V85.4741C131.816 85.4741 129.433 85.9482 127.209 86.8694C124.986 87.7905 122.966 89.1406 121.264 90.8426C119.562 92.5446 118.212 94.5652 117.291 96.7889C116.37 99.0126 115.897 101.396 115.897 103.803Z" fill="white" stroke="black" stroke-width="4" stroke-miterlimit="10"/>
<path d="M122.388 47.5026C123.947 47.5026 125.211 46.2385 125.211 44.6791C125.211 43.1197 123.947 41.8555 122.388 41.8555C120.828 41.8555 119.564 43.1197 119.564 44.6791C119.564 46.2385 120.828 47.5026 122.388 47.5026Z" fill="black"/>
<path d="M126.023 106.626C127.583 106.626 128.847 105.362 128.847 103.803C128.847 102.243 127.583 100.979 126.023 100.979C124.464 100.979 123.2 102.243 123.2 103.803C123.2 105.362 124.464 106.626 126.023 106.626Z" fill="black"/>
<path d="M66.1268 43.243C67.6862 43.243 68.9503 41.9788 68.9503 40.4194C68.9503 38.86 67.6862 37.5959 66.1268 37.5959C64.5674 37.5959 63.3032 38.86 63.3032 40.4194C63.3032 41.9788 64.5674 43.243 66.1268 43.243Z" fill="black"/>
<path d="M133.482 23.2026H24.2881C22.9301 23.2026 21.6277 23.7421 20.6675 24.7024C19.7072 25.6626 19.1677 26.965 19.1677 28.323C19.1677 29.6811 19.7072 30.9834 20.6675 31.9437C21.6277 32.904 22.9301 33.4434 24.2881 33.4434H128.101C129.528 33.4441 130.897 34.0116 131.906 35.0212C132.915 36.0307 133.482 37.3998 133.482 38.8272V142.637C133.482 143.995 134.022 145.298 134.982 146.258C135.942 147.218 137.245 147.758 138.603 147.758C139.961 147.758 141.263 147.218 142.223 146.258C143.183 145.298 143.723 143.995 143.723 142.637V33.4337C143.723 30.7177 142.644 28.1129 140.723 26.1923C138.803 24.2718 136.198 23.1929 133.482 23.1929V23.2026Z" fill="white" stroke="black" stroke-width="4" stroke-miterlimit="10"/>
</svg>
