<svg width="134" height="134" viewBox="0 0 134 134" fill="none" xmlns="http://www.w3.org/2000/svg">
<g clip-path="url(#clip0)">
<path d="M124.283 94.3861L112.769 82.8639L111.826 81.9279L88.3855 58.4892C93.1144 52.79 92.8937 44.3165 87.5491 38.9746L61.4014 12.8336L60.4688 11.8977L48.954 0.384179C48.4372 -0.128548 47.6015 -0.128548 47.0814 0.384179C46.5646 0.900943 46.5646 1.74068 47.0814 2.25408L58.5996 13.7676L55.1336 17.2335L43.6208 5.71802C43.104 5.19991 42.2629 5.19991 41.7482 5.71802C41.2375 6.2368 41.2375 7.07318 41.7482 7.58792L53.261 19.1048L49.7998 22.568L38.2816 11.0599C37.7648 10.5418 36.9291 10.5418 36.413 11.0599C35.8929 11.5706 35.8929 12.4124 36.413 12.9298L47.9272 24.4386L44.4659 27.9046L32.9518 16.3891C32.4357 15.8777 31.6007 15.8777 31.0846 16.3891C30.5644 16.9065 30.5644 17.7456 31.0846 18.259L42.5987 29.7745L39.1166 33.2545L27.6072 21.7404C27.087 21.2223 26.2507 21.2223 25.7346 21.7404C25.2198 22.2592 25.2198 23.0929 25.7346 23.6103L37.2487 35.1244L33.7828 38.5857L22.274 27.0742C21.7539 26.5561 20.9121 26.5561 20.4014 27.0742C19.886 27.5876 19.886 28.4294 20.4014 28.9441L31.9102 40.4556L28.4489 43.9249L16.9294 32.4101C16.4187 31.8974 15.5783 31.8974 15.0622 32.4101C14.5474 32.9262 14.5474 33.7679 15.0622 34.2813L26.5763 45.7941L23.1104 49.2608L11.5956 37.7453C11.0848 37.2285 10.2444 37.2285 9.72834 37.7453C9.2136 38.2627 9.2136 39.0957 9.72834 39.6152L21.2425 51.1307L22.1758 52.0653L45.6219 75.5081C40.8815 81.214 41.113 89.6834 46.4576 95.028L72.6 121.16L73.5386 122.098L85.0582 133.612C85.5763 134.13 86.4093 134.13 86.926 133.612C87.4522 133.097 87.4522 132.261 86.926 131.741L75.4126 120.227L78.8772 116.76L90.3906 128.279C90.9087 128.799 91.7445 128.799 92.2646 128.279C92.78 127.759 92.78 126.923 92.2646 126.408L80.7457 114.895L84.2103 111.427L95.7245 122.935C96.2527 123.461 97.0783 123.461 97.5984 122.935C98.1186 122.426 98.1186 121.585 97.5984 121.07L86.0735 109.567L89.5408 106.099L101.054 117.613C101.58 118.133 102.416 118.133 102.926 117.613C103.446 117.097 103.446 116.256 102.926 115.744L91.4121 104.223L94.8874 100.744L106.402 112.258C106.924 112.778 107.761 112.778 108.27 112.258C108.785 111.742 108.785 110.906 108.27 110.386L96.7506 98.8728L100.218 95.4102L111.727 106.924C112.242 107.444 113.089 107.444 113.593 106.924C114.118 106.409 114.118 105.567 113.593 105.052L102.089 93.539L105.552 90.0717L117.071 101.585C117.587 102.105 118.422 102.105 118.943 101.585C119.457 101.07 119.457 100.229 118.943 99.7193L107.423 88.2058L110.89 84.7385L122.404 96.252C122.919 96.7674 123.761 96.7674 124.275 96.252C124.784 95.7238 124.784 94.8928 124.283 94.3861ZM24.9877 51.1213L60.4722 15.6334L85.6832 40.8398C90.3159 45.4725 90.3159 53.0228 85.6832 57.6548L54.0247 89.312C54.9486 85.4988 54.6276 80.7585 50.192 76.3337L24.9877 51.1213ZM82.7172 79.8979C84.3839 80.6663 85.7909 81.6103 86.7962 82.6217C87.4865 83.3113 88.6008 84.6571 88.261 85.9059C87.786 87.6776 84.5071 88.6963 80.4524 88.3404L78.8825 88.2166L79.0178 89.7743C79.363 93.8296 78.3375 97.12 76.5827 97.5863C75.3446 97.9207 73.9995 96.8172 73.293 96.1302C72.2952 95.1189 71.3403 93.7058 70.5665 92.0452L69.9031 90.6214L68.6119 91.5197C65.2805 93.8465 61.9215 94.6149 60.633 93.3236C59.3431 92.029 60.0967 88.6721 62.4329 85.3394L63.3366 84.0502L63.1192 83.9452L67.4121 79.661C66.6383 81.5592 67.0293 83.8375 68.5715 85.3744C70.6291 87.4454 73.9726 87.4454 76.0457 85.3744C78.1034 83.312 78.1034 79.9712 76.0457 77.9048C74.5035 76.368 72.2332 75.9824 70.327 76.7509L74.6112 72.4579L74.7161 72.6706L76.0054 71.7676C79.3381 69.4347 82.6903 68.6771 83.9836 69.9603C85.2755 71.2602 84.5205 74.6145 82.185 77.9472L81.2813 79.2364L82.7172 79.8979ZM70.4448 79.7687C71.4749 78.7466 73.1571 78.7466 74.1799 79.7687C75.204 80.7962 75.204 82.481 74.1799 83.5038C73.1571 84.5306 71.4749 84.5306 70.4448 83.5038C69.4233 82.481 69.4233 80.7962 70.4448 79.7687ZM73.5379 118.352L51.1354 95.9451L57.7652 89.312C57.1616 91.7363 57.4294 93.831 58.7711 95.1767C60.8651 97.2714 64.7287 96.9726 68.8655 94.4971C71.1809 98.644 74.4793 100.887 77.2724 100.13C80.1199 99.3559 81.8021 95.8583 81.7355 91.0453C86.5593 91.1321 90.0461 89.4412 90.8199 86.5828C91.5668 83.781 89.3396 80.5048 85.1813 78.1807C87.6675 74.0419 87.9508 70.1749 85.8642 68.0877C84.5212 66.7412 82.4232 66.4701 80.0015 67.079L86.632 60.4472L109.045 82.8531L73.5379 118.352Z" fill="black"/>
<path d="M60.8241 68.6885C62.7061 70.5712 64.7853 71.3444 66.6565 70.8431C69.5142 70.0747 71.1971 66.5798 71.119 61.7573C75.9374 61.8421 79.435 60.1586 80.2088 57.2995C80.9664 54.4991 78.7123 51.2081 74.5708 48.8974C77.0564 44.7599 77.3397 40.8889 75.2531 38.8017C73.1686 36.7144 69.2942 37.0071 65.156 39.4826C62.8447 35.325 59.5544 33.1065 56.7539 33.8473C53.8956 34.6184 52.2201 38.1053 52.2968 42.9318C47.4784 42.8537 43.9862 44.5332 43.2124 47.3915C42.4601 50.1745 44.7035 53.475 48.8504 55.7937C46.3695 59.9311 46.0808 63.8022 48.1641 65.8894C50.2594 67.98 54.1216 67.6839 58.2598 65.2085C59.0134 66.5757 59.8848 67.76 60.8241 68.6885ZM50.0313 64.0249C48.742 62.7289 49.4943 59.376 51.8325 56.042L52.7342 54.7541L51.305 54.0893C49.6437 53.3182 48.2414 52.3714 47.2301 51.3574C46.533 50.6657 45.4248 49.3159 45.7592 48.0758C46.2336 46.3123 49.5206 45.2935 53.5746 45.6414L55.1424 45.7733L55.0038 44.2109C54.6532 40.1541 55.6686 36.8665 57.4389 36.3975C58.6871 36.0644 60.0328 37.174 60.7245 37.8657C61.7305 38.869 62.6738 40.2793 63.453 41.9426L64.1178 43.3691L65.4084 42.4675C68.7397 40.1373 72.1047 39.377 73.394 40.6662C74.6825 41.9588 73.9303 45.3151 71.592 48.6464L70.689 49.937L72.1122 50.6018C73.7735 51.3729 75.1919 52.3196 76.1998 53.3276C76.8956 54.0193 77.9984 55.3664 77.6586 56.6132C77.1735 58.3782 73.9027 59.3969 69.85 59.0483L68.2862 58.909L68.4154 60.4795C68.766 64.5416 67.7439 67.8232 65.981 68.2922C64.7328 68.6253 63.3857 67.5157 62.694 66.8213C61.6934 65.8181 60.7447 64.4024 59.9756 62.7444L59.3054 61.3179L58.0155 62.2229C54.6801 64.5538 51.3164 65.3141 50.0313 64.0249Z" fill="black"/>
<path d="M65.4406 56.0857C67.503 54.0254 67.503 50.6779 65.4406 48.6162C63.3763 46.5505 60.0341 46.5505 57.9711 48.6162C55.9068 50.6772 55.9068 54.0254 57.9711 56.0857C60.0341 58.1467 63.3722 58.1467 65.4406 56.0857ZM59.8383 50.4807C60.8698 49.4573 62.5513 49.4573 63.5728 50.4807C64.6043 51.5055 64.6043 53.1897 63.5728 54.2151C62.5507 55.2399 60.8692 55.2399 59.8383 54.2151C58.8068 53.1897 58.8068 51.5055 59.8383 50.4807Z" fill="black"/>
</g>
<defs>
<clipPath id="clip0">
<rect width="134" height="134" fill="white"/>
</clipPath>
</defs>
</svg>
