<svg width="121" height="121" viewBox="0 0 121 121" fill="none" xmlns="http://www.w3.org/2000/svg">
<g clip-path="url(#clip0)">
<path d="M105.659 44.0585C105.656 43.0251 105.096 41.7222 102.781 40.767C102.913 40.4111 102.979 40.0526 102.978 39.6933C102.975 38.9097 102.607 38.1971 101.942 37.6865C99.8145 36.0553 94.6323 36.6927 92.5952 37.2339C90.1381 37.8867 89.6097 38.1334 88.8164 38.5474C88.7619 38.5756 88.7057 38.6052 88.6458 38.636C88.4271 38.6224 88.2074 38.6168 87.9899 38.6168C84.8819 38.6255 82.0152 40.0741 80.2875 42.4544C79.1696 42.4919 78.0653 42.5752 76.9718 42.7029C79.0017 40.0448 80.4103 37.2334 81.3478 34.9331C83.2893 33.5083 85.0014 31.4524 86.2044 29.0907C87.6715 26.2098 88.5355 25.2258 89.6295 23.9802C90.0885 23.4575 90.6092 22.8651 91.2082 22.0931C92.0339 21.0276 92.7748 19.9437 93.3512 18.9584C95.6392 15.0475 96.3362 11.3081 95.216 8.95533C94.6108 7.68451 93.5078 6.86626 92.1095 6.65142C91.5027 6.55839 90.8592 6.57149 90.1957 6.68174C89.3121 3.37558 87.54 1.26415 85.2741 0.915934C82.9445 0.557434 80.685 2.09166 79.0107 5.08995C78.3518 4.69958 77.6603 4.43129 76.9425 4.32078C75.5452 4.10671 74.2467 4.55541 73.2878 5.58594C71.5126 7.49383 71.0551 11.27 72.063 15.6864C72.183 16.213 72.3259 16.7526 72.4881 17.2905C72.4886 17.2923 72.4891 17.2941 72.4899 17.2959C73.0984 19.3151 73.6276 20.5427 74.0943 21.6259C74.7671 23.1869 75.2985 24.4199 75.8652 27.6572C76.3463 30.406 77.0602 32.4765 78.0871 34.074C76.8364 37.0388 74.7607 40.8076 71.5239 43.7275C65.6704 45.2566 60.3251 48.0778 55.8126 51.863C56.4353 49.8271 56.8963 47.7422 57.1875 45.631C59.2868 43.1321 60.8622 39.8791 61.645 36.4087C62.6374 32.007 63.4691 30.3756 64.5214 28.3105C64.9509 27.4681 65.4373 26.5133 65.9649 25.3027C66.6889 23.6379 67.2977 21.9726 67.7253 20.4864C69.3867 14.7116 69.0928 9.71781 66.9387 7.12736C65.8398 5.80567 64.2865 5.16936 62.5673 5.33666C61.6331 5.42738 60.6697 5.73679 59.7132 6.22841C57.5174 2.02407 54.5428 -0.26673 51.5401 0.0249523C48.4385 0.326144 46.0745 3.21958 45.0016 7.89859C43.8071 7.45605 42.6627 7.26922 41.6173 7.37099C39.8972 7.53803 38.4961 8.46062 37.6717 9.96889C36.056 12.925 36.7283 17.8824 39.4696 23.2293C39.8004 23.8743 40.1612 24.5227 40.5428 25.1572C40.5472 25.1649 40.5518 25.1726 40.5564 25.1801C42.0326 27.6318 43.141 29.0709 44.1185 30.3407C45.5659 32.2203 46.709 33.7049 48.5878 37.883C50.1385 41.3318 51.8549 43.8722 53.815 45.6123C53.0353 50.8014 51.1328 55.8086 48.2684 60.2116C48.1258 60.4215 47.5694 61.259 47.5324 61.3349C45.9064 63.9076 44.5639 66.6725 43.5478 69.587C43.5108 69.6711 42.7871 71.9565 42.5165 73.0381C41.7373 76.1529 41.323 79.4071 41.323 82.7505V83.5487L35.4102 55.9689C36.0702 53.3543 35.467 50.5796 33.7632 48.2883L33.2402 45.8487C35.7212 44.7544 37.6673 42.5469 38.4925 39.7915L38.6593 39.2343C39.651 35.922 38.8539 32.3799 36.5785 29.9901C36.1706 29.5617 35.5667 29.3813 34.9911 29.515C33.188 29.9333 31.5741 30.9102 30.3295 32.2717L28.8398 25.3235C31.1722 23.0211 32.2834 19.6157 31.7648 16.1883L31.6656 15.5342C31.0907 11.7354 28.6105 8.55494 25.1928 7.23453C24.6419 7.02148 24.0184 7.11554 23.5545 7.48252C20.6806 9.75559 19.2528 13.5274 19.8282 17.3244L19.9274 17.98C20.4534 21.4555 22.5733 24.4132 25.5472 25.903L25.8505 27.3169C25.7788 27.2756 25.7086 27.2355 25.6428 27.1982C22.6476 25.4715 19.0171 25.433 16.1682 27.098C15.6578 27.3964 15.343 27.9422 15.3406 28.5335C15.3275 31.8338 17.1802 34.9562 20.1674 36.6778C20.3386 36.7777 20.5174 36.8811 20.6804 36.9733C22.8607 38.2308 25.3794 38.5931 27.6915 38.0552C27.3549 40.327 27.8213 42.6155 28.9937 44.4895C27.2647 43.8131 25.3725 43.6512 23.5597 44.0809C22.9843 44.2173 22.524 44.6478 22.3493 45.2126C21.3742 48.3649 22.2351 51.892 24.5959 54.4167L24.9947 54.8438C26.8969 56.8781 29.619 57.9369 32.3824 57.7869L41.3225 99.4867V119.33C41.3225 120.253 42.0703 121.001 42.9929 121.001C43.9155 121.001 44.6634 120.253 44.6634 119.33V99.3443C44.6639 99.3217 44.6639 99.2991 44.6634 99.2762V82.75C44.6634 78.7099 45.322 74.8142 46.5378 71.1634C50.2444 67.5334 54.714 64.7114 59.5744 62.9218C60.5327 67.1122 63.4588 70.771 67.5662 72.7675L68.4318 73.1885C73.2172 75.514 78.7846 75.1853 82.9625 72.3301C83.4505 71.9966 83.7262 71.4299 83.6867 70.8399C83.35 65.7908 80.1687 61.21 75.3854 58.8857L74.5181 58.4635C69.8149 56.1779 64.3541 56.4564 60.2014 59.1782C56.4425 60.3629 52.8685 62.1084 49.6181 64.3311C49.9129 63.8225 50.9434 62.2266 51.1395 61.9226C57.5838 52.5358 68.2362 46.2249 80.3229 45.7955C82.0617 48.1364 84.9112 49.5524 87.993 49.5524C88.0025 49.5524 88.0123 49.5524 88.0221 49.5524C88.2402 49.5516 88.4592 49.5437 88.6776 49.5288C88.7378 49.5594 88.7943 49.5886 88.8491 49.6167C89.6449 50.026 90.1749 50.2697 92.6345 50.907C94.6758 51.4361 99.8621 52.0424 101.979 50.3989C102.641 49.8847 103.005 49.1698 103.003 48.3859C103.002 48.0626 102.946 47.7404 102.837 47.4199C105.12 46.3737 105.662 45.0672 105.659 44.0585ZM84.7663 4.21773C85.5249 4.3344 86.4922 5.51501 87.044 7.83768C85.8641 8.49686 84.7074 9.39478 83.6664 10.4772C83.0678 9.36959 82.3701 8.30026 81.5901 7.3697C82.6674 5.14109 83.9514 4.09309 84.7663 4.21773ZM75.3684 15.1498C75.352 15.0807 75.3358 15.0118 75.3201 14.9432C74.4841 11.2813 74.9483 8.70527 75.7334 7.86132C75.8976 7.68503 76.0515 7.60819 76.2625 7.60819C76.3159 7.60819 76.373 7.61307 76.4347 7.62258C77.7106 7.81866 79.7915 9.86609 81.3537 13.327C79.8007 14.9362 77.67 15.1467 75.3684 15.1498ZM77.1625 20.3035C76.9194 19.7391 76.6716 19.1645 76.4085 18.4683C79.2873 18.3532 82.5235 17.685 84.7339 14.4436C86.9671 11.1685 90.1607 9.73297 91.6022 9.95321C91.9077 10.0002 92.0696 10.119 92.1994 10.3914C92.6952 11.4322 92.3647 14.0288 90.4676 17.271C90.4676 17.271 90.4676 17.271 90.4676 17.2712C89.9628 18.1337 89.3057 19.0935 88.5682 20.0454C88.0321 20.7362 87.568 21.2646 87.1193 21.7755C85.9697 23.0841 84.8845 24.3202 83.2272 27.5742C82.9936 28.0329 82.7314 28.4778 82.4503 28.9074C82.6638 27.7739 82.8131 26.6267 82.8928 25.4694C82.9319 24.903 82.5042 24.4122 81.9381 24.3731C81.3717 24.3341 80.8811 24.7614 80.8418 25.3281C80.7231 27.052 80.4432 28.7533 80.0071 30.4137C79.664 29.4762 79.3811 28.3706 79.1554 27.0813C78.5217 23.4575 77.8916 21.9957 77.1625 20.3035ZM22.3395 34.0732C22.1784 33.9817 22.0116 33.8856 21.8435 33.7877C20.2006 32.8409 19.0834 31.2759 18.7704 29.5543C20.4172 28.9624 22.3331 29.1462 23.985 30.0983C24.0937 30.16 24.2039 30.2237 24.3134 30.287L24.4794 30.3831C26.1126 31.3244 26.898 32.9334 27.3891 34.6761C25.7762 35.1949 23.9331 34.9919 22.3395 34.0732ZM26.7009 22.731C24.8701 21.6735 23.5728 19.7401 23.2307 17.4794L23.1318 16.8259C22.7892 14.5659 23.4566 12.3352 24.8924 10.783C26.7232 11.8408 28.0205 13.7736 28.3625 16.0336L28.4617 16.6879C28.8035 18.9483 28.1364 21.1788 26.7009 22.731ZM32.2968 54.4447C30.4763 54.5712 28.6792 53.8917 27.4346 52.5605L27.0372 52.1352C25.742 50.75 25.1299 48.9269 25.3326 47.1894C27.082 47.1018 28.8585 47.8368 30.1538 49.2219C30.1538 49.2219 30.7834 49.904 30.8908 50.0363C30.9016 50.0502 30.9126 50.0638 30.924 50.0774C31.9753 51.393 32.4592 52.9475 32.2968 54.4447ZM31.8776 42.7987C30.9232 41.3321 30.6608 39.4268 31.2051 37.6086L31.2215 37.5538C31.2344 37.5158 31.246 37.477 31.256 37.4379L31.3714 37.0525C31.9154 35.2358 33.1824 33.7884 34.7857 33.0879C35.7402 34.554 36.0023 36.4596 35.4575 38.2791L35.2915 38.8342C34.7474 40.6508 33.481 42.0982 31.8776 42.7987ZM69.8943 70.1848L69.027 69.7628C66.3772 68.475 64.368 66.3114 63.3403 63.7757C64.2007 64.3619 65.139 64.8682 66.2165 65.3917C68.2324 66.3716 70.4098 66.8573 72.5565 66.8573C74.5653 66.8573 76.5462 66.4299 78.3418 65.5857C79.3122 66.9313 79.9732 68.4655 80.2409 70.0864C77.1625 71.7774 73.2866 71.8334 69.8943 70.1848ZM73.0578 61.4685L73.9241 61.8902C75.0464 62.4355 76.0518 63.1405 76.9194 63.9615C73.871 65.1982 70.2687 65.0761 67.1152 63.5429C65.6064 62.81 64.4466 62.1493 63.3958 61.2256C66.3512 59.8788 69.9118 59.9394 73.0578 61.4685ZM51.8629 3.35013C53.4568 3.19466 55.431 5.09432 56.9508 8.16971C55.3294 9.62607 53.8461 11.5501 52.7107 13.734C51.2168 12.0158 49.6405 10.5921 48.079 9.52841C48.7261 5.94958 50.1943 3.5123 51.8629 3.35013ZM42.8112 22.4C42.6843 22.1684 42.5612 21.9364 42.4427 21.7051C39.9759 16.8937 39.9039 13.227 40.6034 11.571C41.0491 10.5158 42.1117 10.6838 42.2019 10.6838C44.2753 10.6838 47.866 12.85 51.2076 17.1672C49.5418 20.4656 46.2169 21.5545 42.8112 22.4ZM51.6347 36.513C49.5952 31.9772 48.2838 30.2744 46.7655 28.3025C46.1069 27.447 45.433 26.5719 44.6356 25.3792C48.6125 24.3081 52.8698 22.5408 54.7566 17.3596C55.9413 14.1054 57.9399 11.5406 59.874 10.0596C59.9599 10.0069 60.0395 9.94756 60.1125 9.88228C61.105 9.1658 62.0708 8.74125 62.8901 8.66159C63.5169 8.60119 63.9735 8.78623 64.3701 9.26294C65.5193 10.645 66.0097 14.3655 64.5148 19.562C64.1264 20.9112 63.5685 22.4354 62.9019 23.9684C62.4151 25.0852 61.9729 25.9534 61.5452 26.7924C60.4322 28.9763 59.4708 30.8624 58.3863 35.6727C58.0489 37.1681 57.5396 38.6085 56.8942 39.9408C56.884 37.5924 56.6725 35.2445 56.2479 32.9196C56.1459 32.3611 55.6111 31.9908 55.0522 32.0928C54.4937 32.1949 54.1237 32.7302 54.2254 33.2886C54.742 36.1178 54.935 38.9827 54.8047 41.8381C53.6821 40.4982 52.6344 38.7365 51.6347 36.513ZM83.2397 44.0986C84.1901 42.9709 85.5822 42.2241 87.1326 42.0165C87.0894 42.7016 87.0689 43.3934 87.0709 44.0875C87.073 44.7812 87.0977 45.4732 87.145 46.1581C85.5938 45.9594 84.197 45.2206 83.2397 44.0986ZM99.7827 44.9574C99.1882 45.115 98.7282 45.5863 98.5856 46.1843C98.443 46.7823 98.6401 47.4107 99.0993 47.8195C99.1623 47.8756 99.2188 47.9285 99.2689 47.9778C98.0233 48.2163 95.5125 48.2019 93.4733 47.6733C91.4832 47.1573 91.0288 46.9751 90.5449 46.7314C90.4591 45.8603 90.4141 44.9708 90.4115 44.0773C90.409 43.1829 90.4486 42.2932 90.5293 41.4218C91.0114 41.1756 91.4655 40.9903 93.4525 40.4625C95.4884 39.9215 97.9999 39.8922 99.2458 40.124C99.1605 40.2088 99.0579 40.3031 98.9341 40.4072C98.4445 40.8192 98.233 41.4745 98.39 42.0946C98.5465 42.715 99.0441 43.1914 99.6706 43.3209C100.871 43.5697 101.603 43.8668 102.006 44.0904C101.623 44.3296 100.928 44.6542 99.7827 44.9574Z" fill="black"/>
</g>
<defs>
<clipPath id="clip0">
<rect width="121" height="121" fill="white"/>
</clipPath>
</defs>
</svg>
