<svg width="28" height="28" viewBox="0 0 28 28" fill="none" xmlns="http://www.w3.org/2000/svg">
<path d="M14 15.1667C15.933 15.1667 17.5 13.5997 17.5 11.6667C17.5 9.73366 15.933 8.16666 14 8.16666C12.067 8.16666 10.5 9.73366 10.5 11.6667C10.5 13.5997 12.067 15.1667 14 15.1667Z" stroke="black" stroke-width="2" stroke-linecap="round" stroke-linejoin="round"/>
<path d="M14 2.33331C11.5246 2.33331 9.15064 3.31664 7.4003 5.06698C5.64996 6.81732 4.66663 9.19129 4.66663 11.6666C4.66663 13.874 5.13563 15.3183 6.41663 16.9166L14 25.6666L21.5833 16.9166C22.8643 15.3183 23.3333 13.874 23.3333 11.6666C23.3333 9.19129 22.35 6.81732 20.5996 5.06698C18.8493 3.31664 16.4753 2.33331 14 2.33331V2.33331Z" stroke="black" stroke-width="2" stroke-linecap="round" stroke-linejoin="round"/>
</svg>
