<svg width="30" height="30" viewBox="0 0 30 30" fill="none" xmlns="http://www.w3.org/2000/svg">
<path d="M6.5625 5H23.4375C24.4752 4.99993 25.4735 5.39694 26.2278 6.10959C26.982 6.82224 27.435 7.79649 27.4938 8.8325L27.5 9.0625V20.9375C27.5001 21.9752 27.1031 22.9735 26.3904 23.7278C25.6778 24.482 24.7035 24.935 23.6675 24.9937L23.4375 25H6.5625C5.52483 25.0001 4.52646 24.6031 3.77221 23.8904C3.01796 23.1778 2.565 22.2035 2.50625 21.1675L2.5 20.9375V9.0625C2.49993 8.02483 2.89694 7.02646 3.60959 6.27221C4.32224 5.51796 5.29649 5.065 6.3325 5.00625L6.5625 5H23.4375H6.5625ZM25.625 11.7162L15.4375 17.0787C15.3225 17.1395 15.196 17.1757 15.0663 17.1849C14.9365 17.1942 14.8062 17.1763 14.6838 17.1325L14.5638 17.08L4.375 11.7175V20.9375C4.37502 21.4865 4.58146 22.0154 4.95335 22.4192C5.32524 22.8231 5.83537 23.0723 6.3825 23.1175L6.5625 23.125H23.4375C23.9867 23.125 24.5158 22.9183 24.9196 22.5462C25.3235 22.174 25.5726 21.6636 25.6175 21.1162L25.625 20.9375V11.7162ZM23.4375 6.875H6.5625C6.01351 6.87502 5.4846 7.08146 5.08076 7.45335C4.67692 7.82524 4.42767 8.33537 4.3825 8.8825L4.375 9.0625V9.59875L15 15.19L25.625 9.5975V9.0625C25.625 8.51331 25.4183 7.98424 25.0462 7.58036C24.674 7.17649 24.1636 6.92738 23.6162 6.8825L23.4375 6.875Z" fill="black"/>
</svg>
