<svg width="28" height="28" viewBox="0 0 28 28" fill="none" xmlns="http://www.w3.org/2000/svg">
<path d="M12.3129 7.27999L8.36611 2.72416C7.91111 2.19916 7.07694 2.20149 6.54845 2.73116L3.30278 5.98266C2.33678 6.94983 2.06028 8.38599 2.61911 9.53749C5.95767 16.45 11.5325 22.0326 18.4403 25.3808C19.5906 25.9397 21.0256 25.6632 21.9916 24.696L25.2676 21.4142C25.7984 20.8833 25.7996 20.0445 25.2699 19.5895L20.6966 15.6637C20.2183 15.253 19.4751 15.3067 18.9956 15.7873L17.4043 17.381C17.3228 17.4664 17.2156 17.5227 17.099 17.5412C16.9825 17.5598 16.8631 17.5395 16.7591 17.4837C14.158 15.9858 12.0003 13.8253 10.5058 11.2222C10.4498 11.118 10.4295 10.9984 10.4481 10.8817C10.4666 10.7649 10.523 10.6575 10.6084 10.5758L12.1951 8.98799C12.6758 8.50499 12.7283 7.75833 12.3129 7.27883V7.27999Z" stroke="black" stroke-width="2" stroke-linecap="round" stroke-linejoin="round"/>
</svg>
