<svg width="80" height="80" viewBox="0 0 80 80" fill="none" xmlns="http://www.w3.org/2000/svg">
<path d="M76.25 20H72.5V18.75C72.5 18.4185 72.3683 18.1005 72.1339 17.8661C71.8995 17.6317 71.5815 17.5 71.25 17.5H59.1667L54.5 14C54.2836 13.8377 54.0205 13.75 53.75 13.75H51.4908L51.7142 13.6606C51.9462 13.5678 52.145 13.4077 52.2851 13.2008C52.4251 12.9939 52.5 12.7498 52.5 12.5C52.4994 10.5111 51.7091 8.60374 50.3027 7.19734C48.8963 5.79094 46.9889 5.00058 45 5H36.25V7.5H45C46.1839 7.50087 47.3291 7.92131 48.2323 8.68664C49.1355 9.45197 49.7382 10.5127 49.9334 11.6803L44.7592 13.75H36.4062C35.707 13.7504 35.0206 13.9384 34.4187 14.2944C33.8168 14.6504 33.3215 15.1614 32.9844 15.7741L27.5 11.8567V7.5H33.75V5H21.25C20.9185 5 20.6005 5.1317 20.3661 5.36612C20.1317 5.60054 20 5.91848 20 6.25V12.5C20 12.8315 20.1317 13.1495 20.3661 13.3839C20.6005 13.6183 20.9185 13.75 21.25 13.75H22.5C21.5054 13.75 20.5516 14.1451 19.8483 14.8483C19.1451 15.5516 18.75 16.5054 18.75 17.5C18.75 18.4946 19.1451 19.4484 19.8483 20.1517C20.5516 20.8549 21.5054 21.25 22.5 21.25H25V26.25C25 26.5815 25.1317 26.8995 25.3661 27.1339C25.6005 27.3683 25.9185 27.5 26.25 27.5H26.465C26.2402 28.1341 26.1906 28.8171 26.3213 29.4771C26.4521 30.137 26.7584 30.7495 27.208 31.25C26.5912 31.9366 26.25 32.827 26.25 33.75C26.25 34.673 26.5912 35.5634 27.208 36.25C26.8571 36.6407 26.5924 37.1009 26.4311 37.6007C26.2697 38.1004 26.2154 38.6285 26.2715 39.1506C26.3276 39.6728 26.4929 40.1772 26.7567 40.6313C27.0206 41.0853 27.377 41.4788 27.8028 41.7861C27.051 43.5323 26.3996 45.3201 25.8517 47.1406L28.2461 47.8594C28.7947 46.0349 29.4527 44.2452 30.2167 42.5H36.25C36.9741 42.5005 37.6829 42.2912 38.2905 41.8974C38.8982 41.5036 39.3788 40.9422 39.6741 40.281C39.9695 39.6199 40.067 38.8873 39.9548 38.1719C39.8426 37.4566 39.5256 36.789 39.042 36.25C39.6588 35.5634 40 34.673 40 33.75C40 32.827 39.6588 31.9366 39.042 31.25C39.6588 30.5634 40 29.673 40 28.75C40 27.827 39.6588 26.9366 39.042 26.25H44.0241L44.9967 30.1391C45.8771 33.6598 47.1401 37.0737 48.7631 40.3197C50.3965 43.5892 51.6461 47.0369 52.4867 50.5938C53.326 54.1505 53.7499 57.7925 53.75 61.4469V72.5C53.7492 73.1628 53.4856 73.7982 53.0169 74.2669C52.5482 74.7356 51.9128 74.9992 51.25 75H28.75C28.0872 74.9992 27.4518 74.7356 26.9831 74.2669C26.5144 73.7982 26.2508 73.1628 26.25 72.5V61.4469C26.2506 58.1075 26.6046 54.7776 27.3062 51.5128L24.862 50.9872C24.1234 54.4248 23.7507 57.9309 23.75 61.4469V72.5C23.7515 73.8256 24.2788 75.0965 25.2161 76.0339C26.1535 76.9712 27.4244 77.4985 28.75 77.5H51.25C52.5756 77.4985 53.8465 76.9712 54.7839 76.0339C55.7212 75.0965 56.2485 73.8256 56.25 72.5V61.4469C56.2498 57.5989 55.8034 53.764 54.9197 50.0189C54.0346 46.274 52.719 42.6441 50.9992 39.2017C49.4576 36.1189 48.258 32.8765 47.4219 29.5327L46.8089 27.0813C48.5054 28.1746 50.4817 28.7541 52.5 28.75V26.25C50.9036 26.2552 49.3427 25.7793 48.0208 24.8843C46.699 23.9893 45.6774 22.7168 45.0894 21.2327L44.9106 20.7856C44.8276 20.5782 44.6906 20.3969 44.5137 20.2604C44.3369 20.1239 44.1267 20.0374 43.905 20.0097L36.2313 19.0503C35.8782 19.0036 35.556 18.8246 35.3298 18.5496C35.1035 18.2746 34.99 17.924 35.0122 17.5685C35.0344 17.2131 35.1907 16.8793 35.4494 16.6346C35.7082 16.3898 36.0501 16.2524 36.4062 16.25H53.3333L58 19.75C58.2164 19.9123 58.4795 20 58.75 20H70V37.5H67.5V23.75H65V37.5H53.75V40H71.25C71.5815 40 71.8995 39.8683 72.1339 39.6339C72.3683 39.3995 72.5 39.0815 72.5 38.75V37.5H76.25C76.5815 37.5 76.8995 37.3683 77.1339 37.1339C77.3683 36.8995 77.5 36.5815 77.5 36.25V21.25C77.5 20.9185 77.3683 20.6005 77.1339 20.3661C76.8995 20.1317 76.5815 20 76.25 20ZM32.0281 19.3184C32.186 19.0353 32.3063 18.7328 32.3858 18.4186L32.6156 18.5828C32.7974 19.3236 33.1917 19.9951 33.75 20.5148V24.8461L33.7116 25H31.3966L32.0281 19.3184ZM22.5 7.5H25V11.25H22.5V7.5ZM21.25 17.5C21.2504 17.1686 21.3822 16.8509 21.6165 16.6165C21.8509 16.3822 22.1686 16.2504 22.5 16.25H28.75C29.0815 16.25 29.3995 16.3817 29.6339 16.6161C29.8683 16.8505 30 17.1685 30 17.5C30 17.8315 29.8683 18.1495 29.6339 18.3839C29.3995 18.6183 29.0815 18.75 28.75 18.75H22.5C22.1686 18.7496 21.8509 18.6178 21.6165 18.3835C21.3822 18.1491 21.2504 17.8314 21.25 17.5ZM29.3025 21.2091L28.8812 25H27.5V21.25C27.5 21.25 29.1222 21.2358 29.3025 21.2091ZM36.25 27.5C36.5815 27.5 36.8995 27.6317 37.1339 27.8661C37.3683 28.1005 37.5 28.4185 37.5 28.75C37.5 29.0815 37.3683 29.3995 37.1339 29.6339C36.8995 29.8683 36.5815 30 36.25 30H30C29.6685 30 29.3505 29.8683 29.1161 29.6339C28.8817 29.3995 28.75 29.0815 28.75 28.75C28.75 28.4185 28.8817 28.1005 29.1161 27.8661C29.3505 27.6317 29.6685 27.5 30 27.5H36.25ZM37.5 33.75C37.4996 34.0814 37.3678 34.3991 37.1335 34.6335C36.8991 34.8678 36.5814 34.9996 36.25 35H30C29.6685 35 29.3505 34.8683 29.1161 34.6339C28.8817 34.3995 28.75 34.0815 28.75 33.75C28.75 33.4185 28.8817 33.1005 29.1161 32.8661C29.3505 32.6317 29.6685 32.5 30 32.5H36.25C36.5814 32.5004 36.8991 32.6322 37.1335 32.8665C37.3678 33.1009 37.4996 33.4186 37.5 33.75ZM36.25 40H30C29.6685 40 29.3505 39.8683 29.1161 39.6339C28.8817 39.3995 28.75 39.0815 28.75 38.75C28.75 38.4185 28.8817 38.1005 29.1161 37.8661C29.3505 37.6317 29.6685 37.5 30 37.5H36.25C36.5815 37.5 36.8995 37.6317 37.1339 37.8661C37.3683 38.1005 37.5 38.4185 37.5 38.75C37.5 39.0815 37.3683 39.3995 37.1339 39.6339C36.8995 39.8683 36.5815 40 36.25 40ZM43.5636 23.75H36.25V21.5722L42.8669 22.3992C43.0665 22.8656 43.2993 23.317 43.5636 23.75ZM75 35H72.5V22.5H75V35Z" fill="black"/>
<path d="M11.25 11.25H16.25V13.75H11.25V11.25Z" fill="black"/>
<path d="M2.5 11.25H7.5V13.75H2.5V11.25Z" fill="black"/>
<path d="M11.4237 6.271L12.5387 4.0335L17.0137 6.2635L15.8987 8.501L11.4237 6.271Z" fill="black"/>
<path d="M3.59534 2.36816L4.71034 0.130664L9.18534 2.36066L8.07034 4.59816L3.59534 2.36816Z" fill="black"/>
<path d="M11.4233 18.6182L15.8983 16.3882L17.0133 18.6257L12.5383 20.8557L11.4233 18.6182Z" fill="black"/>
<path d="M3.59106 22.5215L8.06606 20.2915L9.18106 22.529L4.70606 24.759L3.59106 22.5215Z" fill="black"/>
<path d="M41.25 65C43.5698 64.9974 45.7939 64.0746 47.4343 62.4343C49.0746 60.7939 49.9974 58.5698 50 56.25V51.25C50 50.9185 49.8683 50.6005 49.6339 50.3661C49.3995 50.1317 49.0815 50 48.75 50H38.75C36.4302 50.0026 34.2061 50.9254 32.5657 52.5657C30.9254 54.2061 30.0026 56.4302 30 58.75V63.75C30 64.0815 30.1317 64.3995 30.3661 64.6339C30.6005 64.8683 30.9185 65 31.25 65H41.25ZM32.5 58.75C32.5019 57.093 33.1609 55.5043 34.3326 54.3326C35.5043 53.1609 37.093 52.5019 38.75 52.5H47.5V56.25C47.4981 57.907 46.8391 59.4957 45.6674 60.6674C44.4957 61.8391 42.907 62.4981 41.25 62.5H32.5V58.75Z" fill="black"/>
</svg>
