<svg width="87" height="87" viewBox="0 0 87 87" fill="none" xmlns="http://www.w3.org/2000/svg">
<path d="M58.4531 32.625H66.6094C67.6906 32.6238 68.7272 32.1937 69.4917 31.4292C70.2562 30.6647 70.6863 29.6281 70.6875 28.5469V27.1875C70.6875 25.0243 69.8282 22.9498 68.2986 21.4202C66.769 19.8906 64.6944 19.0312 62.5312 19.0312C60.3681 19.0312 58.2935 19.8906 56.7639 21.4202C55.2343 22.9498 54.375 25.0243 54.375 27.1875V28.5469C54.3762 29.6281 54.8063 30.6647 55.5708 31.4292C56.3353 32.1937 57.3719 32.6238 58.4531 32.625ZM57.0938 27.1875C57.0938 25.7454 57.6666 24.3623 58.6864 23.3426C59.7061 22.3229 61.0891 21.75 62.5312 21.75C63.9734 21.75 65.3564 22.3229 66.3761 23.3426C67.3959 24.3623 67.9688 25.7454 67.9688 27.1875V28.5469C67.9683 28.9073 67.825 29.2528 67.5702 29.5077C67.3153 29.7625 66.9698 29.9058 66.6094 29.9062H58.4531C58.0927 29.9058 57.7472 29.7625 57.4923 29.5077C57.2375 29.2528 57.0942 28.9073 57.0938 28.5469V27.1875Z" fill="black"/>
<path d="M76.125 62.7651V46.2188C76.125 45.2181 75.6876 44.3435 75.3017 43.5717C75.0375 43.0444 74.7656 42.4993 74.7656 42.1406C74.7656 41.7894 75.0333 41.2584 75.2924 40.7449C75.6832 39.9702 76.125 39.0921 76.125 38.0625C76.125 37.0618 75.6876 36.1872 75.3017 35.4155C75.0375 34.8882 74.7656 34.3431 74.7656 33.9844C74.7656 33.6331 75.0333 33.1021 75.2924 32.5886C75.6832 31.814 76.125 30.9358 76.125 29.9062V27.1817C76.121 24.5388 75.3476 21.9541 73.8993 19.7434C72.4509 17.5326 70.3902 15.7914 67.9688 14.7322V5.29052C67.9688 5.0052 67.879 4.7271 67.7122 4.49563C67.5454 4.26416 67.31 4.09104 67.0393 4.00081L63.8208 2.92792C62.9834 2.65096 62.0791 2.65096 61.2417 2.92792L58.0232 4.00081C57.7525 4.09104 57.5171 4.26416 57.3503 4.49563C57.1835 4.7271 57.0937 5.0052 57.0938 5.29052V14.7322C54.6723 15.7914 52.6116 17.5326 51.1632 19.7434C49.7149 21.9541 48.9415 24.5388 48.9375 27.1817V29.9062C48.9375 30.9358 49.3793 31.814 49.7701 32.5886C50.0289 33.1021 50.2969 33.6331 50.2969 33.9844C50.2969 34.3431 50.025 34.8882 49.7608 35.4155C49.3749 36.1872 48.9375 37.0618 48.9375 38.0625C48.9375 39.0921 49.3793 39.9702 49.7701 40.7449C50.0289 41.2584 50.2969 41.7894 50.2969 42.1406C50.2969 42.4993 50.025 43.0444 49.7608 43.5717C49.3749 44.3435 48.9375 45.2181 48.9375 46.2188V62.5312H44.8594V33.9844C44.8593 32.9287 44.6131 31.8876 44.1403 30.9437C43.6676 29.9998 42.9812 29.1792 42.1359 28.5469H42.1406V20.3906C42.1406 20.0301 41.9974 19.6843 41.7425 19.4294C41.4875 19.1745 41.1418 19.0312 40.7812 19.0312H39.4219V13.5938H40.7812C42.2234 13.5938 43.6064 13.0209 44.6261 12.0011C45.6459 10.9814 46.2188 9.59836 46.2188 8.15625C46.2188 6.71414 45.6459 5.33109 44.6261 4.31136C43.6064 3.29163 42.2234 2.71875 40.7812 2.71875H14.9531C14.5926 2.71875 14.2468 2.86197 13.9919 3.1169C13.737 3.37183 13.5938 3.7176 13.5938 4.07812H9.51562C9.1551 4.07812 8.80933 4.22134 8.5544 4.47628C8.29947 4.73121 8.15625 5.07697 8.15625 5.4375V10.875C8.15625 11.2355 8.29947 11.5813 8.5544 11.8362C8.80933 12.0912 9.1551 12.2344 9.51562 12.2344H13.5938C13.5938 12.5949 13.737 12.9407 13.9919 13.1956C14.2468 13.4505 14.5926 13.5938 14.9531 13.5938H16.3125V17.6719C16.3121 18.0323 16.1687 18.3778 15.9139 18.6327C15.6591 18.8875 15.3135 19.0308 14.9531 19.0312C13.8715 19.0312 12.8343 19.4609 12.0695 20.2257C11.3047 20.9905 10.875 22.0278 10.875 23.1094C10.875 24.191 11.3047 25.2282 12.0695 25.993C12.8343 26.7578 13.8715 27.1875 14.9531 27.1875C17.476 27.1847 19.8946 26.1812 21.6786 24.3973C23.4625 22.6134 24.4659 20.1947 24.4688 17.6719V13.5938H28.5469V19.0312H27.1875C26.827 19.0312 26.4812 19.1745 26.2263 19.4294C25.9713 19.6843 25.8281 20.0301 25.8281 20.3906V28.5469H25.8329C24.9875 29.1792 24.3012 29.9998 23.8284 30.9437C23.3557 31.8876 23.1095 32.9287 23.1094 33.9844V35.3438C23.1082 36.425 22.6781 37.4615 21.9136 38.2261C21.149 38.9906 20.1125 39.4207 19.0312 39.4219H16.3125C14.5105 39.4239 12.7828 40.1406 11.5086 41.4149C10.2344 42.6891 9.51765 44.4167 9.51562 46.2188V77.4844C9.51765 79.2864 10.2344 81.014 11.5086 82.2883C12.7828 83.5625 14.5105 84.2792 16.3125 84.2812H76.125C76.4855 84.2812 76.8313 84.138 77.0862 83.8831C77.3412 83.6282 77.4844 83.2824 77.4844 82.9219V73.4062C77.8449 73.4062 78.1907 73.263 78.4456 73.0081C78.7005 72.7532 78.8438 72.4074 78.8438 72.0469V66.6094C78.8427 65.7664 78.5808 64.9443 78.094 64.2561C77.6073 63.5678 76.9195 63.047 76.125 62.7651ZM10.875 9.51562V6.79688H13.5938V9.51562H10.875ZM25.8281 76.125H19.0312C18.6708 76.1246 18.3253 75.9812 18.0705 75.7264C17.8156 75.4716 17.6723 75.126 17.6719 74.7656V48.9375C17.6723 48.5771 17.8156 48.2316 18.0705 47.9767C18.3253 47.7219 18.6708 47.5785 19.0312 47.5781H29.9062C30.9874 47.5769 32.024 47.1468 32.7885 46.3823C33.5531 45.6178 33.9831 44.5812 33.9844 43.5V36.7031C33.9844 36.3426 34.1276 35.9968 34.3825 35.7419C34.6375 35.487 34.9832 35.3438 35.3438 35.3438C35.7043 35.3438 36.05 35.487 36.305 35.7419C36.5599 35.9968 36.7031 36.3426 36.7031 36.7031V62.5312H28.5469C27.4657 62.5325 26.4291 62.9625 25.6645 63.727C24.9 64.4916 24.47 65.5282 24.4688 66.6094V72.0469C24.4688 72.4074 24.612 72.7532 24.8669 73.0081C25.1218 73.263 25.4676 73.4062 25.8281 73.4062V76.125ZM27.1875 70.6875V66.6094C27.1879 66.249 27.3313 65.9034 27.5861 65.6486C27.8409 65.3938 28.1865 65.2504 28.5469 65.25H74.7656C75.126 65.2504 75.4716 65.3938 75.7264 65.6486C75.9812 65.9034 76.1246 66.249 76.125 66.6094V70.6875H27.1875ZM59.8125 6.27012L62.1013 5.50734C62.3805 5.41473 62.682 5.41473 62.9612 5.50734L65.25 6.27012V8.15625H59.8125V6.27012ZM59.8125 10.875H65.25V13.8673C63.4559 13.5026 61.6066 13.5026 59.8125 13.8673V10.875ZM51.6562 46.2188C51.6562 45.86 51.9281 45.3149 52.1924 44.7877C52.5782 44.0159 53.0156 43.1413 53.0156 42.1406C53.0156 41.143 52.5815 40.2815 52.1983 39.5213C51.9319 38.9925 51.6562 38.4457 51.6562 38.0625C51.6562 37.7038 51.9281 37.1587 52.1924 36.6314C52.5782 35.8596 53.0156 34.985 53.0156 33.9844C53.0156 32.9868 52.5815 32.1253 52.1983 31.365C51.9319 30.8362 51.6562 30.2894 51.6562 29.9062V27.1875C51.6441 24.3033 52.7782 21.5323 54.809 19.4843C56.8399 17.4362 59.6011 16.2788 62.4854 16.2666C65.3696 16.2545 68.1405 17.3885 70.1886 19.4194C72.2367 21.4502 73.3941 24.2115 73.4062 27.0957C73.4021 27.1566 73.4021 27.2176 73.4062 27.2784V29.9062C73.4062 30.2894 73.1306 30.8362 72.8642 31.365C72.481 32.1253 72.0469 32.9868 72.0469 33.9844C72.0469 34.985 72.4843 35.8596 72.8701 36.6314C73.1344 37.1587 73.4062 37.7038 73.4062 38.0625C73.4062 38.4457 73.1306 38.9925 72.8642 39.5213C72.481 40.2815 72.0469 41.143 72.0469 42.1406C72.0469 43.1413 72.4843 44.0159 72.8701 44.7877C73.1344 45.3149 73.4062 45.86 73.4062 46.2188V62.5312H69.3281V50.2969C69.3281 49.9363 69.1849 49.5906 68.93 49.3357C68.675 49.0807 68.3293 48.9375 67.9688 48.9375C67.6082 48.9375 67.2625 49.0807 67.0075 49.3357C66.7526 49.5906 66.6094 49.9363 66.6094 50.2969V62.5312H63.8906V50.2969C63.8906 49.9363 63.7474 49.5906 63.4925 49.3357C63.2375 49.0807 62.8918 48.9375 62.5312 48.9375C62.1707 48.9375 61.825 49.0807 61.57 49.3357C61.3151 49.5906 61.1719 49.9363 61.1719 50.2969V62.5312H58.4531V50.2969C58.4531 49.9363 58.3099 49.5906 58.055 49.3357C57.8 49.0807 57.4543 48.9375 57.0938 48.9375C56.7332 48.9375 56.3875 49.0807 56.1325 49.3357C55.8776 49.5906 55.7344 49.9363 55.7344 50.2969V62.5312H51.6562V46.2188ZM16.3125 5.4375H40.7812C41.5023 5.4375 42.1938 5.72394 42.7037 6.2338C43.2136 6.74367 43.5 7.43519 43.5 8.15625C43.5 8.87731 43.2136 9.56883 42.7037 10.0787C42.1938 10.5886 41.5023 10.875 40.7812 10.875H16.3125V5.4375ZM21.75 17.6719C21.748 19.4739 21.0312 21.2015 19.757 22.4758C18.4828 23.75 16.7551 24.4667 14.9531 24.4688C14.5926 24.4688 14.2468 24.3255 13.9919 24.0706C13.737 23.8157 13.5938 23.4699 13.5938 23.1094C13.5938 22.7488 13.737 22.4031 13.9919 22.1482C14.2468 21.8932 14.5926 21.75 14.9531 21.75C16.0343 21.7488 17.0709 21.3187 17.8355 20.5542C18.6 19.7897 19.03 18.7531 19.0312 17.6719V13.5938H21.75V17.6719ZM31.2656 13.5938H36.7031V19.0312H31.2656V13.5938ZM28.5469 21.75H39.4219V27.3243C38.9745 27.2332 38.5191 27.1874 38.0625 27.1875H29.9062C29.4497 27.1874 28.9943 27.2332 28.5469 27.3243V21.75ZM12.2344 77.4844V46.2188C12.2356 45.1375 12.6656 44.101 13.4302 43.3364C14.1947 42.5719 15.2313 42.1418 16.3125 42.1406H19.0312C20.5008 42.1421 21.9308 41.6649 23.105 40.7812H27.1875C27.548 40.7812 27.8938 40.638 28.1487 40.3831C28.4037 40.1282 28.5469 39.7824 28.5469 39.4219C28.5469 39.0613 28.4037 38.7156 28.1487 38.4607C27.8938 38.2057 27.548 38.0625 27.1875 38.0625H25.2589C25.6349 37.2055 25.8287 36.2796 25.8281 35.3438H27.1875C27.548 35.3438 27.8938 35.2005 28.1487 34.9456C28.4037 34.6907 28.5469 34.3449 28.5469 33.9844C28.5469 33.6238 28.4037 33.2781 28.1487 33.0232C27.8938 32.7682 27.548 32.625 27.1875 32.625H26.0619C26.3439 31.8305 26.8647 31.1427 27.5529 30.656C28.2412 30.1692 29.0632 29.9073 29.9062 29.9062H38.0625C39.1437 29.9075 40.1803 30.3375 40.9448 31.102C41.7094 31.8666 42.1394 32.9032 42.1406 33.9844V62.5312H39.4219V36.7031C39.4219 35.6215 38.9922 34.5843 38.2274 33.8195C37.4626 33.0547 36.4253 32.625 35.3438 32.625C34.2622 32.625 33.2249 33.0547 32.4601 33.8195C31.6953 34.5843 31.2656 35.6215 31.2656 36.7031V43.5C31.2652 43.8604 31.1219 44.2059 30.867 44.4608C30.6122 44.7156 30.2667 44.859 29.9062 44.8594H19.0312C17.9501 44.8606 16.9135 45.2907 16.149 46.0552C15.3844 46.8197 14.9544 47.8563 14.9531 48.9375V74.7656C14.9544 75.8468 15.3844 76.8834 16.149 77.6479C16.9135 78.4124 17.9501 78.8425 19.0312 78.8438H25.8281V81.5625H16.3125C15.2313 81.5613 14.1947 81.1312 13.4302 80.3667C12.6656 79.6022 12.2356 78.5656 12.2344 77.4844ZM74.7656 81.5625H72.0469V77.4844C72.0469 77.1238 71.9037 76.7781 71.6487 76.5231C71.3938 76.2682 71.048 76.125 70.6875 76.125C70.327 76.125 69.9812 76.2682 69.7263 76.5231C69.4713 76.7781 69.3281 77.1238 69.3281 77.4844V81.5625H66.6094V77.4844C66.6094 77.1238 66.4662 76.7781 66.2112 76.5231C65.9563 76.2682 65.6105 76.125 65.25 76.125C64.8895 76.125 64.5437 76.2682 64.2888 76.5231C64.0338 76.7781 63.8906 77.1238 63.8906 77.4844V81.5625H61.1719V77.4844C61.1719 77.1238 61.0287 76.7781 60.7737 76.5231C60.5188 76.2682 60.173 76.125 59.8125 76.125C59.452 76.125 59.1062 76.2682 58.8513 76.5231C58.5963 76.7781 58.4531 77.1238 58.4531 77.4844V81.5625H55.7344V77.4844C55.7344 77.1238 55.5912 76.7781 55.3362 76.5231C55.0813 76.2682 54.7355 76.125 54.375 76.125C54.0145 76.125 53.6687 76.2682 53.4138 76.5231C53.1588 76.7781 53.0156 77.1238 53.0156 77.4844V81.5625H50.2969V77.4844C50.2969 77.1238 50.1537 76.7781 49.8987 76.5231C49.6438 76.2682 49.298 76.125 48.9375 76.125C48.577 76.125 48.2312 76.2682 47.9763 76.5231C47.7213 76.7781 47.5781 77.1238 47.5781 77.4844V81.5625H44.8594V77.4844C44.8594 77.1238 44.7162 76.7781 44.4612 76.5231C44.2063 76.2682 43.8605 76.125 43.5 76.125C43.1395 76.125 42.7937 76.2682 42.5388 76.5231C42.2838 76.7781 42.1406 77.1238 42.1406 77.4844V81.5625H39.4219V77.4844C39.4219 77.1238 39.2787 76.7781 39.0237 76.5231C38.7688 76.2682 38.423 76.125 38.0625 76.125C37.702 76.125 37.3562 76.2682 37.1013 76.5231C36.8463 76.7781 36.7031 77.1238 36.7031 77.4844V81.5625H33.9844V77.4844C33.9844 77.1238 33.8412 76.7781 33.5862 76.5231C33.3313 76.2682 32.9855 76.125 32.625 76.125C32.2645 76.125 31.9187 76.2682 31.6638 76.5231C31.4088 76.7781 31.2656 77.1238 31.2656 77.4844V81.5625H28.5469V73.4062H74.7656V81.5625Z" fill="black"/>
</svg>
