<svg width="84" height="84" viewBox="0 0 84 84" fill="none" xmlns="http://www.w3.org/2000/svg">
<path d="M33.3559 60.2295H23.2486C22.6249 60.2295 22.1186 60.7357 22.1186 61.3595V70.5165C22.1186 70.9041 22.3175 71.2646 22.6452 71.4713L27.6994 74.6646C27.8836 74.781 28.0938 74.8397 28.3028 74.8397C28.5119 74.8397 28.722 74.781 28.9062 74.6646L33.9605 71.4713C34.2881 71.2646 34.487 70.9041 34.487 70.5165V61.3595C34.4859 60.7357 33.9797 60.2295 33.3559 60.2295ZM32.226 69.8939L28.3017 72.373L24.3774 69.8939V62.4894H32.2249V69.8939H32.226ZM25.774 32.1052C26.8192 41.5064 34.2644 45.7437 39.3254 45.7437C44.3864 45.7437 51.8305 41.5064 52.8768 32.1052C54.3831 31.312 56.4136 29.3403 56.3107 25.8363C56.2904 25.1595 56.2305 23.103 54.722 22.5324C53.2384 21.9708 51.7412 23.4578 51.4554 23.7617C51.0294 24.2182 51.0531 24.9335 51.5085 25.3595C51.9638 25.7855 52.6802 25.7629 53.1062 25.3064C53.304 25.0951 53.6509 24.8273 53.8814 24.7177C53.9446 24.8883 54.0328 25.2397 54.052 25.9041C54.148 29.1708 51.7605 30.1516 51.5232 30.2408L47.1232 31.2047C41.9469 30.6476 36.704 30.6476 31.5288 31.2047L27.1209 30.2397C26.7876 30.1086 24.5051 29.0939 24.5989 25.9052C24.6181 25.2408 24.7062 24.8894 24.7695 24.7188C24.9864 24.8228 25.3186 25.0702 25.5446 25.3075C25.9706 25.7629 26.6859 25.7855 27.1424 25.3606C27.5977 24.9346 27.6215 24.2194 27.1955 23.7629C26.9107 23.4589 25.4192 21.9674 23.9288 22.5335C22.4203 23.103 22.3593 25.1606 22.3401 25.8374C22.2362 29.3414 24.2678 31.3131 25.774 32.1052ZM28.1582 32.7787L30.4158 33.2736L31.0814 39.3064C29.7119 37.7007 28.6226 35.5595 28.1582 32.7787ZM47.5672 39.3052L48.2328 33.2725L50.4904 32.7776C50.026 35.5595 48.9367 37.7007 47.5672 39.3052ZM45.9514 33.3504L45.0531 41.4838C45.0509 41.503 45.0588 41.5199 45.0576 41.538C42.9842 42.9222 40.791 43.4838 39.3243 43.4838C37.8599 43.4838 35.6723 42.9233 33.6023 41.5448L32.6983 33.3504C37.0994 32.9369 41.548 32.9369 45.9514 33.3504ZM33.2633 48.2736L29.9842 49.8126L29.696 44.5516C29.6621 43.9278 29.1209 43.4487 28.5062 43.4849C27.8836 43.5188 27.4057 44.0521 27.4396 44.6747L27.4994 45.773C23.626 47.1719 20.113 49.7109 17.4678 52.9685C17.313 52.0612 16.9842 51.1922 16.2723 50.4759C15.9842 50.1855 15.6339 49.9493 15.2497 49.7437V41.2126C15.565 41.3018 15.9119 41.4566 16.2226 41.7301C16.9797 42.3934 17.3627 43.5719 17.3627 45.2341V48.8137C17.3627 49.4374 17.8689 49.9437 18.4927 49.9437C19.1164 49.9437 19.6226 49.4374 19.6226 48.8137V45.2352C19.6226 42.8939 18.9797 41.1437 17.7119 40.0329C16.8893 39.312 15.9672 39.0194 15.2429 38.9075C15.2249 38.2996 14.7322 37.8103 14.1198 37.8103H1.12994C0.506215 37.8103 0 38.3165 0 38.9403V42.373C0 42.9968 0.506215 43.503 1.12994 43.503H4.62147C4.77966 45.1708 5.33559 48.2623 7.25424 49.9855C7.02712 50.138 6.8 50.2894 6.61243 50.4781C5.26328 51.8352 5.27345 53.7391 5.28249 55.4182L5.28362 63.26C5.28362 65.3278 6.31074 67.1561 7.8791 68.2736C7.22599 69.2567 6.58192 70.0849 6.58531 70.0849C3.16836 73.816 3.53672 81.0216 3.55367 81.3267C3.58757 81.9244 4.08249 82.3923 4.68249 82.3923H19.5198C20.1186 82.3923 20.6136 81.9244 20.6486 81.3267C20.6655 81.0216 21.0339 73.8148 17.6407 70.112C17.6283 70.0973 16.5729 68.8555 15.7864 67.6216C16.9073 66.5064 17.6011 64.9629 17.6011 63.26L17.6023 56.6612C19.9345 52.8307 23.5424 49.7877 27.6294 48.147L27.8192 51.6103C27.8396 51.9855 28.0452 52.3256 28.3672 52.5188C28.5458 52.625 28.7458 52.6792 28.9469 52.6792C29.1107 52.6792 29.2746 52.6442 29.4271 52.5719L34.2237 50.3211C34.7887 50.0555 35.0316 49.3832 34.7661 48.8182C34.5006 48.251 33.8271 48.0103 33.2633 48.2736ZM2.25989 40.0691H3.53672V41.2431H2.25989V40.0691ZM10.6113 48.9696C6.89379 48.9696 6.81808 42.434 6.81808 42.3685C6.81356 41.7855 6.36497 41.3222 5.79661 41.2646V40.0679H12.9898V48.9708L11.452 48.9696C11.4486 48.9696 11.4452 48.9696 11.4418 48.9696C11.4384 48.9696 11.4362 48.9696 11.4328 48.9696H10.6113ZM7.54237 55.4058C7.53559 54.0465 7.52768 52.7617 8.21469 52.0713C8.76836 51.5143 9.85085 51.2318 11.4294 51.2307H11.4565C13.035 51.2329 14.1175 51.5143 14.6701 52.0713C15.1288 52.5335 15.2757 53.2623 15.322 54.0996H12.6949C12.0712 54.0996 11.565 54.6058 11.565 55.2295C11.565 55.8533 12.0712 56.3595 12.6949 56.3595H15.3424V58.4171H12.6949C12.0712 58.4171 11.565 58.9233 11.565 59.547C11.565 60.1708 12.0712 60.677 12.6949 60.677H15.3412V62.5843H12.6949C12.0712 62.5843 11.565 63.0905 11.565 63.7143C11.565 64.338 12.0712 64.8442 12.6949 64.8442H14.9966C14.3876 66.2047 13.0271 67.1572 11.4429 67.1572C9.29379 67.1572 7.54463 65.4081 7.54463 63.2589L7.54237 55.4058ZM5.8 80.1324C5.80791 79.6883 5.83503 79.1188 5.88927 78.4928H18.313C18.3672 79.1177 18.3932 79.6883 18.4011 80.1324H5.8ZM15.9492 71.6092C17.0497 72.8103 17.6542 74.5561 17.9921 76.2318H6.21582C6.56045 74.5437 7.17966 72.7776 8.30848 71.5437C8.35028 71.4905 9.17514 70.4352 9.95367 69.2284C10.4316 69.347 10.9277 69.4182 11.4418 69.4182C12.3232 69.4182 13.1593 69.2295 13.9175 68.8939C14.7898 70.2487 15.8723 71.5211 15.9492 71.6092ZM23.9548 18.9312V20.1131C23.9548 20.7369 24.461 21.2431 25.0847 21.2431C25.7085 21.2431 26.2147 20.7369 26.2147 20.1131V18.5651C29.5989 17.2295 34.4983 15.9572 39.3243 15.9572C44.1503 15.9572 49.0497 17.2295 52.4339 18.5651V20.1131C52.4339 20.7369 52.9401 21.2431 53.5638 21.2431C54.1876 21.2431 54.6938 20.7369 54.6938 20.1131V18.9312C54.9944 18.7211 55.1774 18.3787 55.1774 18.0103V5.92106C55.1774 5.47473 54.9153 5.07021 54.5062 4.88829C50.9401 3.30185 45.0791 1.60693 39.3243 1.60693C33.5684 1.60693 27.7073 3.30185 24.1424 4.88829C23.7345 5.07021 23.4712 5.47473 23.4712 5.92106V18.0092C23.4712 18.3776 23.6554 18.7199 23.9548 18.9312ZM25.7311 6.66682C29.1198 5.26456 34.2689 3.86795 39.3243 3.86795C44.3797 3.86795 49.5277 5.26456 52.9175 6.66682V16.3233C49.3367 14.9583 44.2904 13.6962 39.3243 13.6962C34.3571 13.6962 29.313 14.9583 25.7311 16.3233V6.66682ZM82.8701 37.2205H54.3616C53.7379 37.2205 53.2316 37.7267 53.2316 38.3504V42.3312C53.2316 42.955 53.7379 43.4612 54.3616 43.4612H57L67.9842 51.2759V61.9267C66.0904 62.0171 64.6927 62.4849 63.7864 63.3968C62.4373 64.7538 62.4475 66.6578 62.4565 68.3369L62.4576 76.1787C62.4576 79.5742 65.2203 82.3369 68.6158 82.3369C72.0113 82.3369 74.774 79.5742 74.774 76.1787L74.7752 68.3369C74.7842 66.6578 74.7944 64.7538 73.4452 63.3968C72.7017 62.6487 71.6429 62.19 70.2441 61.9968V51.2442C75.0283 47.5064 79.1322 44.3312 80.2565 43.4612H82.8701C83.4938 43.4612 84 42.955 84 42.3312V38.3504C84 37.7256 83.4938 37.2205 82.8701 37.2205ZM72.5153 68.3256L72.5141 76.1798C72.5141 78.329 70.765 80.0781 68.6158 80.0781C67.0316 80.0781 65.6712 79.1245 65.0622 77.7651H67.3638C67.9876 77.7651 68.4938 77.2589 68.4938 76.6352C68.4938 76.0115 67.9876 75.5052 67.3638 75.5052H64.7175V73.5979H67.3638C67.9876 73.5979 68.4938 73.0917 68.4938 72.4679C68.4938 71.8442 67.9876 71.338 67.3638 71.338H64.7164V69.2804H67.3638C67.9876 69.2804 68.4938 68.7742 68.4938 68.1504C68.4938 67.5267 67.9876 67.0205 67.3638 67.0205H64.7367C64.7831 66.1832 64.9299 65.4544 65.3887 64.9922C65.9435 64.4341 67.0305 64.1504 68.6158 64.1504C70.2011 64.1504 71.2881 64.4329 71.8429 64.9922C72.53 65.6815 72.5232 66.9651 72.5153 68.3256ZM81.7401 41.2013H79.8712C79.6215 41.2013 79.3785 41.2838 79.1808 41.4363C79.1808 41.4363 74.617 44.9606 69.0825 49.2826L58.0158 41.4092C57.8249 41.2736 57.5955 41.2002 57.3605 41.2002H55.4915V39.4804H81.7401V41.2013ZM50.8735 47.9798L50.6746 51.6092C50.6542 51.9843 50.4486 52.3244 50.1266 52.5177C49.948 52.6239 49.748 52.6781 49.5469 52.6781C49.3831 52.6781 49.2192 52.6431 49.0667 52.5708L44.2701 50.3199C43.7051 50.0544 43.4622 49.3821 43.7277 48.8171C43.9921 48.251 44.6667 48.0092 45.2305 48.2747L48.5096 49.8137L48.7977 44.5527C48.8316 43.929 49.365 43.4521 49.9876 43.486C50.6102 43.5199 51.0881 44.0533 51.0542 44.6759L51.0023 45.6194C57.5627 47.8374 63.0124 53.2408 65.2305 59.7346C65.4328 60.3244 65.1164 60.9674 64.5266 61.1696C64.4057 61.2114 64.2825 61.2307 64.1616 61.2307C63.6915 61.2307 63.2531 60.9346 63.0927 60.4657C61.1627 54.8194 56.5141 50.0951 50.8735 47.9798ZM40.4542 53.3866V81.0024C40.4542 81.6261 39.948 82.1324 39.3243 82.1324C38.7006 82.1324 38.1944 81.6261 38.1944 81.0024V53.3866C38.1944 52.7629 38.7006 52.2567 39.3243 52.2567C39.948 52.2567 40.4542 52.7629 40.4542 53.3866ZM55.0565 33.9538H82.1751C82.7989 33.9538 83.3051 34.46 83.3051 35.0838C83.3051 35.7075 82.7989 36.2137 82.1751 36.2137H55.0565C54.4328 36.2137 53.9266 35.7075 53.9266 35.0838C53.9266 34.46 54.4316 33.9538 55.0565 33.9538Z" fill="black"/>
</svg>
