<svg width="86" height="86" viewBox="0 0 86 86" fill="none" xmlns="http://www.w3.org/2000/svg">
<g clip-path="url(#clip0)">
<path d="M17.6931 40.5506L18.7963 41.6842C20.8071 43.75 24.111 43.7967 26.1791 41.784L32.1035 36.0174C33.6381 34.5237 33.8265 31.9171 32.0704 30.2077L26.1791 24.4733C24.1163 22.4654 20.8042 22.5101 18.7963 24.573L17.6931 25.7067C17.2079 26.2052 17.2188 27.0027 17.7173 27.488L23.5122 33.1287L17.7173 38.7693C17.2188 39.2545 17.2079 40.052 17.6931 40.5506ZM26.1971 34.0314C26.4406 33.7942 26.5782 33.4687 26.5782 33.1285C26.5782 32.7884 26.4408 32.463 26.1971 32.2257L20.3774 26.561L20.6022 26.33C21.6434 25.2604 23.3518 25.237 24.4218 26.2784L30.3131 32.0129C31.0021 32.6836 30.9254 33.6479 30.3462 34.2116L24.4218 39.9781C23.3725 40.9994 21.6612 41.0148 20.6022 39.9266L20.3774 39.6958L26.1971 34.0314Z" fill="black"/>
<path d="M68.4601 53.8174C66.0314 53.8174 64.0554 55.7934 64.0554 58.222C64.0554 60.6509 66.0314 62.6268 68.4601 62.6268C70.8889 62.6268 72.8649 60.6509 72.8649 58.222C72.8649 55.7934 70.8889 53.8174 68.4601 53.8174ZM68.4601 60.1071C67.4207 60.1071 66.5749 59.2614 66.5749 58.2219C66.5749 57.1823 67.4205 56.3367 68.4601 56.3367C69.4996 56.3367 70.3453 57.1823 70.3453 58.2219C70.3453 59.2614 69.4996 60.1071 68.4601 60.1071Z" fill="black"/>
<path d="M16.9108 58.222C16.9108 60.6509 18.8868 62.6268 21.3156 62.6268C23.7442 62.6268 25.7202 60.6509 25.7202 58.222C25.7202 55.7934 23.7442 53.8174 21.3156 53.8174C18.8866 53.8174 16.9108 55.7934 16.9108 58.222ZM23.2005 58.222C23.2005 59.2614 22.355 60.1073 21.3154 60.1073C20.2759 60.1073 19.4301 59.2616 19.4301 58.222C19.4301 57.1825 20.2759 56.3369 21.3154 56.3369C22.355 56.3369 23.2005 57.1825 23.2005 58.222Z" fill="black"/>
<path d="M84.7171 39.9108L65.2902 18.6524C64.362 17.6367 63.0404 17.0542 61.6644 17.0542H12.8027C12.1068 17.0542 11.543 17.6182 11.543 18.314C11.543 19.0097 12.1068 19.5737 12.8027 19.5737H43.6291V49.8361H27.9874C26.1547 48.3749 23.8361 47.4985 21.3154 47.4985C18.7947 47.4985 16.476 48.3749 14.6432 49.8361H2.51969V37.6669H3.23188C3.92777 37.6669 4.49164 37.1029 4.49164 36.4072C4.49164 35.7115 3.92777 35.1474 3.23188 35.1474H2.51969V20.3474C2.51969 19.9209 2.86655 19.5739 3.29302 19.5739H7.76568C8.46158 19.5739 9.02545 19.0099 9.02545 18.3141C9.02545 17.6184 8.46158 17.0544 7.76568 17.0544H3.29302C1.47728 17.0544 0.000167968 18.5316 0.000167968 20.3474V36.404C0.000167968 36.4052 0 36.4062 0 36.4072C0 36.4082 0.000167968 36.4094 0.000167968 36.4104V51.0927C0.000167968 51.0938 0 51.0948 0 51.0959C0 51.0969 0.000167968 51.098 0.000167968 51.099V56.405C0.000167968 57.8055 1.1395 58.9449 2.53985 58.9449H6.50592V60.2431H1.93164C1.23574 60.2431 0.671874 60.8069 0.671874 61.5028C0.671874 62.1987 1.23574 62.7626 1.93164 62.7626H7.76568C8.46158 62.7626 9.02545 62.1987 9.02545 61.5028V58.9449H10.6185C10.9919 64.5219 15.6453 68.946 21.3154 68.946C23.7919 68.946 26.2083 68.0813 28.1196 66.5108C28.6571 66.0691 28.7349 65.2752 28.2931 64.7376C27.851 64.1999 27.0572 64.1226 26.5199 64.5641C25.0584 65.765 23.2099 66.4265 21.3154 66.4265C16.7915 66.4265 13.1109 62.746 13.1109 58.2221C13.1109 53.6982 16.7915 50.0178 21.3154 50.0178C25.8393 50.0178 29.5196 53.6982 29.5196 58.2221C29.5196 59.1557 29.3624 60.0741 29.0527 60.9524C28.821 61.6085 29.1654 62.3281 29.8213 62.5595C30.4779 62.7915 31.1969 62.4468 31.4284 61.7909C31.7534 60.8703 31.9474 59.9155 32.0126 58.9449H57.7632C58.1366 64.5219 62.79 68.946 68.4599 68.946C74.13 68.946 78.7834 64.5219 79.1568 58.9449H82.2167C84.3028 58.9449 86 57.2477 86 55.1617V43.2158C86 41.9894 85.5443 40.8157 84.7171 39.9108ZM2.51969 56.4048V52.3554H12.3453C11.5515 53.5652 10.9962 54.9437 10.7451 56.4252H2.53985C2.52876 56.4252 2.51969 56.4161 2.51969 56.4048ZM63.4304 20.3521L78.4061 36.7396H74.0843L70.7208 33.376L71.0809 33.0159C71.573 32.5239 71.573 31.7264 71.081 31.2344C70.5891 30.7424 69.7914 30.7423 69.2996 31.2344L68.0514 32.4826C68.0504 32.4836 68.0494 32.4843 68.0484 32.4853C68.0474 32.4863 68.0467 32.4873 68.0457 32.4883L66.7977 33.7363C66.3055 34.2283 66.3055 35.0258 66.7975 35.5178C67.0436 35.7639 67.3659 35.8868 67.6884 35.8868C68.0107 35.8868 68.3333 35.7639 68.5792 35.5178L68.9393 35.1577L70.5212 36.7396H61.4741L61.0266 33.4736C60.9322 32.7843 60.2975 32.302 59.6076 32.3964C58.9183 32.4908 58.4359 33.1263 58.5304 33.8156L58.931 36.7396H55.2625C55.1664 36.7396 55.0883 36.6615 55.0883 36.5654V25.5128H56.479C57.0002 25.5128 57.4465 25.9021 57.5173 26.4186L57.8406 28.7787C57.9271 29.41 58.4671 29.8677 59.0871 29.8677C59.144 29.8677 59.2018 29.8638 59.2596 29.8559C59.9489 29.7615 60.4313 29.1261 60.3368 28.4367L60.0134 26.0766C59.7727 24.3188 58.2533 22.9932 56.479 22.9932H55.0883V19.5736H61.6646C62.3346 19.5736 62.9782 19.8573 63.4304 20.3521ZM46.1487 19.5736H52.5686V36.5654C52.5686 38.0508 53.7769 39.2591 55.2623 39.2591H80.7087C82.3583 41.2593 83.4805 41.7538 83.4805 43.2156V44.9084H82.2321C81.5362 44.9084 80.9724 45.4723 80.9724 46.1682C80.9724 46.8641 81.5362 47.4279 82.2321 47.4279H83.4805V49.8359H75.1321C73.2994 48.3748 70.9808 47.4983 68.4599 47.4983C65.9392 47.4983 63.6206 48.3748 61.7879 49.8359H46.1487V19.5736ZM57.8896 56.4252H46.1487V52.3554H59.4899C58.6961 53.5652 58.1408 54.9437 57.8896 56.4252ZM43.6291 56.4252H31.8856C31.6345 54.9437 31.0792 53.565 30.2854 52.3554H43.6291V56.4252ZM68.4599 66.4263C63.936 66.4263 60.2556 62.7458 60.2556 58.2219C60.2556 53.698 63.936 50.0177 68.4599 50.0177C72.9838 50.0177 76.6643 53.698 76.6643 58.2219C76.6643 62.7458 72.9838 66.4263 68.4599 66.4263ZM82.2167 56.4252H79.0305C78.7794 54.9437 78.2241 53.565 77.4303 52.3554H83.4806V55.1615C83.4805 55.8583 82.9136 56.4252 82.2167 56.4252Z" fill="black"/>
</g>
<defs>
<clipPath id="clip0">
<rect width="86" height="86" fill="white"/>
</clipPath>
</defs>
</svg>
