<svg width="107" height="107" viewBox="0 0 107 107" fill="none" xmlns="http://www.w3.org/2000/svg">
<path d="M53.5 27.2114C48.3006 27.2114 43.218 28.7532 38.8949 31.6419C34.5717 34.5305 31.2023 38.6362 29.2125 43.4398C27.2228 48.2434 26.7022 53.5292 27.7166 58.6286C28.7309 63.7281 31.2347 68.4123 34.9112 72.0888C38.5877 75.7654 43.2719 78.2691 48.3714 79.2834C53.4708 80.2978 58.7566 79.7772 63.5602 77.7875C68.3638 75.7978 72.4695 72.4283 75.3581 68.1052C78.2468 63.782 79.7886 58.6994 79.7886 53.5C79.7808 46.5302 77.0087 39.8481 72.0803 34.9197C67.1519 29.9913 60.4698 27.2192 53.5 27.2114ZM53.5 76.8661C48.8794 76.8661 44.3626 75.496 40.5207 72.929C36.6788 70.362 33.6843 66.7135 31.9159 62.4447C30.1476 58.1759 29.6847 53.4786 30.5859 48.9467C31.4871 44.4149 33.7118 40.252 36.9788 36.9845C40.2458 33.7171 44.4084 31.4917 48.9401 30.5899C53.4718 29.688 58.1692 30.1502 62.4382 31.918C66.7073 33.6857 70.3563 36.6797 72.9238 40.5212C75.4914 44.3628 76.8621 48.8794 76.8628 53.5C76.8559 59.6941 74.3923 65.6325 70.0124 70.0124C65.6325 74.3923 59.6941 76.8559 53.5 76.8628V76.8661Z" fill="black"/>
<path d="M91.444 59.6065C93.1519 57.8945 95.0879 55.9543 95.0879 53.5C95.0879 51.0457 93.1519 49.1055 91.444 47.3977C90.2955 46.2466 89.1084 45.057 88.8351 44.0347C88.5408 42.9346 88.9839 41.2594 89.4119 39.6385C90.0472 37.2352 90.7034 34.7491 89.5205 32.7052C88.3193 30.6296 85.8157 29.9541 83.394 29.3013C81.7948 28.8699 80.1405 28.4235 79.3606 27.6436C78.5806 26.8637 78.1351 25.2102 77.7037 23.6102C77.0509 21.186 76.3754 18.6857 74.3006 17.4845C72.2551 16.3016 69.769 16.9578 67.3624 17.5923C65.7415 18.0203 64.0646 18.4617 62.9662 18.1691C61.943 17.8958 60.7543 16.7087 59.6032 15.5601C57.8945 13.8481 55.9543 11.9121 53.5 11.9121C51.0457 11.9121 49.1063 13.8481 47.3977 15.556C46.2466 16.7045 45.057 17.8916 44.0347 18.1649C42.9346 18.4575 41.2585 18.0161 39.6376 17.5881C37.2327 16.9528 34.7483 16.2958 32.7035 17.4795C30.6279 18.6807 29.9533 21.1843 29.2996 23.606C28.8691 25.2052 28.4227 26.8603 27.6428 27.6394C26.8629 28.4185 25.2094 28.8649 23.6094 29.2963C21.1852 29.9491 18.684 30.6246 17.4836 32.7002C16.3008 34.7441 16.957 37.2301 17.5915 39.6335C18.0195 41.2544 18.4625 42.9304 18.1683 44.0305C17.8891 45.057 16.7045 46.2424 15.5568 47.3977C13.8481 49.1097 11.9121 51.0499 11.9121 53.5042C11.9121 55.9585 13.8481 57.8987 15.5568 59.6107C16.7045 60.7618 17.8916 61.9513 18.1649 62.9737C18.4592 64.0738 18.0161 65.749 17.5881 67.3707C16.9536 69.774 16.2966 72.2593 17.4803 74.3031C18.6807 76.3788 21.1843 77.0542 23.606 77.7071C25.2052 78.1384 26.8595 78.5848 27.6386 79.3647C28.4177 80.1447 28.8649 81.799 29.2963 83.3981C29.9491 85.8224 30.6246 88.3227 32.7002 89.5239C34.7441 90.7076 37.231 90.0505 39.6343 89.4161C41.2544 88.9881 42.9287 88.5442 44.0305 88.8393C45.0537 89.1126 46.2432 90.2997 47.3943 91.4482C49.1063 93.1561 51.0457 95.0921 53.4967 95.0921C55.9476 95.0921 57.8912 93.1561 59.6032 91.4482C60.7543 90.2997 61.9438 89.1126 62.9662 88.8393C64.0654 88.545 65.7431 88.9881 67.3624 89.4161C69.7665 90.0522 72.2509 90.7084 74.2956 89.5247C76.3712 88.3235 77.0467 85.8199 77.6996 83.3981C78.1309 81.799 78.5773 80.1447 79.3572 79.3647C80.1371 78.5848 81.7906 78.1393 83.3906 77.7079C85.8148 77.0551 88.3151 76.3796 89.5164 74.3048C90.7001 72.2601 90.0438 69.774 89.4085 67.3665C88.9797 65.7457 88.5375 64.0704 88.8317 62.9703C89.1109 61.943 90.2955 60.7576 91.444 59.6065ZM86.5831 68.1122C87.0662 69.9429 87.5661 71.8355 86.9877 72.8344C86.3916 73.8643 84.4798 74.3809 82.6324 74.8783C80.6613 75.4099 78.6241 75.9591 77.2916 77.2916C75.9591 78.6241 75.4091 80.6613 74.8783 82.6324C74.3767 84.4807 73.8643 86.3941 72.8344 86.9885C71.8313 87.567 69.9429 87.0654 68.113 86.5831C66.1235 86.0573 64.0654 85.5156 62.2138 86.0088C60.4349 86.4836 58.9629 87.9523 57.5401 89.3726C56.165 90.7444 54.7439 92.1621 53.5 92.1621C52.2561 92.1621 50.835 90.741 49.4608 89.3726C48.0397 87.9515 46.5659 86.4836 44.7862 86.0088C44.2698 85.875 43.738 85.8095 43.2046 85.814C41.7388 85.8878 40.2881 86.1462 38.887 86.5831C37.0571 87.0654 35.1637 87.5645 34.1656 86.9877C33.1349 86.3916 32.6191 84.4799 32.1209 82.6324C31.5901 80.6613 31.0409 78.6241 29.7084 77.2916C28.3759 75.9591 26.3379 75.4091 24.3676 74.8783C22.5193 74.3767 20.6059 73.8643 20.0123 72.8344C19.4339 71.8313 19.9338 69.9429 20.4169 68.113C20.9427 66.1235 21.4869 64.0654 20.9912 62.2138C20.5156 60.4349 19.0477 58.9629 17.6274 57.5401C16.2565 56.165 14.8379 54.7439 14.8379 53.5C14.8379 52.2561 16.259 50.835 17.6274 49.4599C19.0485 48.0388 20.5156 46.5651 20.9912 44.7862C21.4869 42.9346 20.9427 40.8765 20.4169 38.8861C19.9338 37.0563 19.4347 35.1645 20.0123 34.1656C20.6084 33.1357 22.5202 32.6191 24.3676 32.1217C26.3387 31.5901 28.3801 31.0409 29.7084 29.7084C31.0367 28.3759 31.5909 26.3387 32.1217 24.3676C32.6233 22.5193 33.1357 20.6059 34.1656 20.0115C35.1629 19.433 37.0563 19.9338 38.887 20.4169C40.8773 20.9436 42.9363 21.4861 44.7862 20.9912C46.5659 20.5164 48.0371 19.0477 49.4608 17.6274C50.835 16.2556 52.2561 14.8379 53.5 14.8379C54.7439 14.8379 56.165 16.259 57.5401 17.6274C58.9612 19.0485 60.4349 20.5164 62.2138 20.9912C64.0654 21.4861 66.1235 20.9436 68.1122 20.4169C69.9429 19.9346 71.8346 19.4339 72.8344 20.0123C73.8643 20.6084 74.3809 22.5202 74.8783 24.3676C75.4099 26.3387 75.9591 28.3801 77.2916 29.7084C78.6241 31.0367 80.6613 31.5909 82.6324 32.1217C84.4807 32.6233 86.3941 33.1357 86.9885 34.1656C87.5661 35.1687 87.0662 37.0571 86.5831 38.887C86.0573 40.8765 85.5139 42.9346 86.0088 44.7862C86.4836 46.5651 87.9523 48.0372 89.3726 49.4599C90.7444 50.835 92.1621 52.2561 92.1621 53.5C92.1621 54.7439 90.741 56.165 89.3726 57.5401C87.9515 58.9612 86.4836 60.4349 86.0088 62.2138C85.5164 64.0646 86.0573 66.1227 86.5831 68.1122Z" fill="black"/>
<path d="M64.9281 41.688C64.2967 41.6863 63.6712 41.8099 63.0879 42.0517C62.5046 42.2935 61.9751 42.6486 61.53 43.0966L50.9178 53.7071L45.47 48.2593C45.0249 47.8075 44.4948 47.4482 43.9103 47.2021C43.3257 46.9561 42.6982 46.8282 42.0639 46.8258C41.4297 46.8233 40.8013 46.9465 40.2148 47.1881C39.6284 47.4296 39.0956 47.7849 38.6471 48.2333C38.1985 48.6818 37.8432 49.2146 37.6016 49.801C37.3599 50.3874 37.2367 51.0158 37.239 51.6501C37.2414 52.2843 37.3692 52.9118 37.6152 53.4964C37.8611 54.081 38.2204 54.6112 38.6722 55.0563L47.5189 63.903C47.9651 64.3496 48.495 64.7039 49.0782 64.9456C49.6614 65.1873 50.2865 65.3117 50.9178 65.3117C51.5491 65.3117 52.1742 65.1873 52.7575 64.9456C53.3407 64.7039 53.8705 64.3496 54.3167 63.903L68.3271 49.8944C68.9992 49.2221 69.4569 48.3655 69.6423 47.4331C69.8277 46.5007 69.7325 45.5342 69.3688 44.6559C69.005 43.7775 68.3889 43.0268 67.5985 42.4985C66.8081 41.9703 65.8788 41.6882 64.9281 41.688ZM66.2589 47.8246L52.2461 61.8349C51.8876 62.1766 51.4114 62.3672 50.9162 62.3672C50.4209 62.3672 49.9447 62.1766 49.5862 61.8349L40.7411 52.9882C40.5665 52.8136 40.4279 52.6062 40.3334 52.378C40.2389 52.1498 40.1902 51.9052 40.1902 51.6582C40.1902 51.4112 40.2389 51.1667 40.3334 50.9385C40.4279 50.7103 40.5665 50.5029 40.7411 50.3283C40.9158 50.1536 41.1231 50.0151 41.3513 49.9205C41.5795 49.826 41.8241 49.7774 42.0711 49.7774C42.3181 49.7774 42.5627 49.826 42.7909 49.9205C43.0191 50.0151 43.2264 50.1536 43.4011 50.3283L49.8838 56.8101C50.0195 56.946 50.1807 57.0539 50.3581 57.1275C50.5355 57.201 50.7257 57.2389 50.9178 57.2389C51.1099 57.2389 51.3001 57.201 51.4775 57.1275C51.655 57.0539 51.8162 56.946 51.9519 56.8101L63.5998 45.1638C63.9577 44.8212 64.434 44.63 64.9294 44.63C65.4248 44.63 65.9011 44.8212 66.2589 45.1638C66.4336 45.3384 66.5721 45.5457 66.6666 45.7738C66.7611 46.0019 66.8098 46.2465 66.8098 46.4934C66.8098 46.7403 66.7611 46.9848 66.6666 47.213C66.5721 47.4411 66.4336 47.6484 66.2589 47.823V47.8246Z" fill="black"/>
</svg>
