<svg width="76" height="76" viewBox="0 0 76 76" fill="none" xmlns="http://www.w3.org/2000/svg">
<path d="M6.2771 21.2586C6.89085 21.2586 7.38843 20.761 7.38843 20.1472V2.22266H46.2198V12.1169C46.2198 13.3702 47.2394 14.3898 48.4927 14.3898H58.4591V19.9241C58.4591 20.5378 58.9567 21.0354 59.5704 21.0354C60.1842 21.0354 60.6817 20.5378 60.6817 19.9241V13.6934C60.6817 13.1522 60.471 12.6435 60.0884 12.2609L48.4211 0.59345C48.0385 0.210708 47.5298 0 46.9885 0H7.1915C6.07454 0 5.16577 0.908771 5.16577 2.02573V20.1472C5.16577 20.761 5.66335 21.2586 6.2771 21.2586ZM48.4424 12.1169V3.75822L56.8513 12.1671H48.4927C48.4651 12.1671 48.4424 12.1446 48.4424 12.1169Z" fill="black"/>
<path d="M59.5706 51.2797C58.9568 51.2797 58.4592 51.7772 58.4592 52.391V73.7771H7.38843V24.8872C7.38843 24.2735 6.89085 23.7759 6.2771 23.7759C5.66335 23.7759 5.16577 24.2735 5.16577 24.8872V73.9741C5.16577 75.091 6.07454 75.9998 7.1915 75.9998H58.656C59.773 75.9998 60.6817 75.091 60.6817 73.9741V52.391C60.6819 51.7772 60.1843 51.2797 59.5706 51.2797Z" fill="black"/>
<path d="M20.7711 13.4476C20.7711 12.2539 19.8 11.2827 18.6061 11.2827H12.6556C11.4619 11.2827 10.4907 12.2539 10.4907 13.4476V19.3981C10.4907 20.592 11.4619 21.5631 12.6556 21.5631H18.6061C19.8 21.5631 20.7711 20.592 20.7711 19.3981V13.4476ZM18.5485 19.3405H12.7134V13.5054H18.5485V19.3405Z" fill="black"/>
<path d="M23.5283 15.0435H41.3025C41.9162 15.0435 42.4138 14.5459 42.4138 13.9321C42.4138 13.3184 41.9162 12.8208 41.3025 12.8208H23.5283C22.9146 12.8208 22.417 13.3184 22.417 13.9321C22.417 14.5459 22.9146 15.0435 23.5283 15.0435Z" fill="black"/>
<path d="M23.5283 20.0259H41.3025C41.9162 20.0259 42.4138 19.5283 42.4138 18.9146C42.4138 18.3008 41.9162 17.8032 41.3025 17.8032H23.5283C22.9146 17.8032 22.417 18.3008 22.417 18.9146C22.417 19.5283 22.9146 20.0259 23.5283 20.0259Z" fill="black"/>
<path d="M20.7711 26.8418C20.7711 25.6479 19.8 24.6768 18.6061 24.6768H12.6556C11.4619 24.6768 10.4907 25.6479 10.4907 26.8418V32.7923C10.4907 33.9861 11.4619 34.9573 12.6556 34.9573H18.6061C19.8 34.9573 20.7711 33.9861 20.7711 32.7923V26.8418ZM18.5485 32.7345H12.7134V26.8994H18.5485V32.7345Z" fill="black"/>
<path d="M47.3311 26.2139H23.5283C22.9146 26.2139 22.417 26.7114 22.417 27.3252C22.417 27.9389 22.9146 28.4365 23.5283 28.4365H47.3311C47.9448 28.4365 48.4424 27.9389 48.4424 27.3252C48.4424 26.7114 47.945 26.2139 47.3311 26.2139Z" fill="black"/>
<path d="M48.4424 32.3086C48.4424 31.6948 47.9448 31.1973 47.3311 31.1973H23.5283C22.9146 31.1973 22.417 31.6948 22.417 32.3086C22.417 32.9223 22.9146 33.4199 23.5283 33.4199H47.3311C47.945 33.4199 48.4424 32.9223 48.4424 32.3086Z" fill="black"/>
<path d="M20.7711 40.2353C20.7711 39.0415 19.8 38.0703 18.6061 38.0703H12.6556C11.4619 38.0703 10.4907 39.0415 10.4907 40.2353V46.1858C10.4907 47.3797 11.4619 48.3508 12.6556 48.3508H18.6061C19.8 48.3508 20.7711 47.3797 20.7711 46.1858V40.2353ZM18.5485 46.1282H12.7134V40.2931H18.5485V46.1282Z" fill="black"/>
<path d="M23.5283 41.8306H44.762C45.3757 41.8306 45.8733 41.333 45.8733 40.7192C45.8733 40.1055 45.3757 39.6079 44.762 39.6079H23.5283C22.9146 39.6079 22.417 40.1055 22.417 40.7192C22.417 41.333 22.9146 41.8306 23.5283 41.8306Z" fill="black"/>
<path d="M47.3988 45.7022C47.3988 45.0884 46.9012 44.5908 46.2875 44.5908H23.5283C22.9146 44.5908 22.417 45.0884 22.417 45.7022C22.417 46.3159 22.9146 46.8135 23.5283 46.8135H46.2875C46.9012 46.8135 47.3988 46.3159 47.3988 45.7022Z" fill="black"/>
<path d="M18.6061 51.4644H12.6556C11.4619 51.4644 10.4907 52.4355 10.4907 53.6294V59.5799C10.4907 60.7737 11.4619 61.7449 12.6556 61.7449H18.6061C19.8 61.7449 20.7711 60.7737 20.7711 59.5799V53.6294C20.7711 52.4355 19.8 51.4644 18.6061 51.4644ZM18.5485 59.5221H12.7134V53.687H18.5485V59.5221Z" fill="black"/>
<path d="M43.3362 54.1128C43.3362 53.499 42.8386 53.0015 42.2249 53.0015H23.5283C22.9146 53.0015 22.417 53.499 22.417 54.1128C22.417 54.7266 22.9146 55.2241 23.5283 55.2241H42.2249C42.8386 55.2241 43.3362 54.7267 43.3362 54.1128Z" fill="black"/>
<path d="M23.5283 57.9844C22.9146 57.9844 22.417 58.482 22.417 59.0957C22.417 59.7095 22.9146 60.207 23.5283 60.207H38.8122C39.426 60.207 39.9236 59.7095 39.9236 59.0957C39.9236 58.482 39.426 57.9844 38.8122 57.9844H23.5283Z" fill="black"/>
<path d="M69.1677 18.5942L67.6399 17.842C66.1631 17.1148 64.3697 17.7247 63.6424 19.2017L41.6379 63.8906C41.5228 64.1243 41.4681 64.3854 41.4798 64.646L41.6942 69.387C41.7197 69.952 42.0508 70.4582 42.5581 70.708C42.775 70.8148 43.0095 70.8676 43.243 70.8676C43.5556 70.8676 43.8667 70.773 44.1321 70.5875L48.0208 67.8667C48.2343 67.7172 48.4079 67.5146 48.5227 67.2814L54.6329 54.8721C54.9041 54.3215 54.6775 53.6553 54.1268 53.3841C53.5764 53.113 52.9101 53.3395 52.6388 53.8903L49.1467 60.9822L46.25 59.5559L61.3433 28.9029L64.2402 30.3292L54.7355 49.6321C54.4643 50.1828 54.6909 50.849 55.2417 51.1201C55.7924 51.3914 56.4585 51.1647 56.7296 50.6139L70.5275 22.5921C71.2546 21.1148 70.6445 19.3216 69.1677 18.5942ZM43.8593 68.0654L43.7317 65.2456L46.172 66.4471L43.8593 68.0654ZM48.1648 62.9759L47.3822 64.5654L44.4855 63.1391L45.2681 61.5496L48.1648 62.9759ZM62.3251 26.9085L63.1078 25.319L66.0047 26.7454L65.222 28.3349L62.3251 26.9085ZM68.5333 21.6099L66.9865 24.7515L64.0896 23.3252L65.6364 20.1837C65.8221 19.8063 66.2803 19.6502 66.6581 19.8362L68.1857 20.5883C68.5632 20.7741 68.7191 21.2325 68.5333 21.6099Z" fill="black"/>
</svg>
