<svg width="41" height="41" viewBox="0 0 41 41" fill="none" xmlns="http://www.w3.org/2000/svg">
<path fill-rule="evenodd" clip-rule="evenodd" d="M12.7526 1.82076C14.7565 1.72851 15.3954 1.70801 20.4999 1.70801C25.6044 1.70801 26.2433 1.73022 28.2455 1.82076C30.2477 1.9113 31.6143 2.23076 32.8102 2.69372C34.0624 3.16692 35.1984 3.90663 36.138 4.8633C37.0947 5.80117 37.8327 6.93551 38.3042 8.18942C38.7688 9.38526 39.0866 10.7519 39.1788 12.7507C39.2711 14.758 39.2916 15.3969 39.2916 20.4997C39.2916 25.6042 39.2694 26.2431 39.1788 28.247C39.0883 30.2457 38.7688 31.6124 38.3042 32.8082C37.8327 34.0623 37.0934 35.1985 36.138 36.1378C35.1984 37.0944 34.0624 37.8324 32.8102 38.3039C31.6143 38.7686 30.2477 39.0863 28.2489 39.1786C26.2433 39.2708 25.6044 39.2913 20.4999 39.2913C15.3954 39.2913 14.7565 39.2691 12.7526 39.1786C10.7539 39.088 9.38721 38.7686 8.19138 38.3039C6.93732 37.8324 5.80111 37.0932 4.86184 36.1378C3.90582 35.1993 3.166 34.0636 2.69396 32.8099C2.231 31.6141 1.91325 30.2474 1.821 28.2487C1.72875 26.2414 1.70825 25.6025 1.70825 20.4997C1.70825 15.3952 1.73046 14.7563 1.821 12.7541C1.91154 10.7519 2.231 9.38526 2.69396 8.18942C3.16669 6.93565 3.90708 5.8 4.86354 4.86159C5.80149 3.90578 6.93656 3.16597 8.18967 2.69372C9.3855 2.23076 10.7522 1.91301 12.7509 1.82076H12.7526ZM28.0935 5.20326C26.1118 5.11272 25.5173 5.09392 20.4999 5.09392C15.4825 5.09392 14.888 5.11272 12.9064 5.20326C11.0733 5.28697 10.0791 5.59276 9.41625 5.85072C8.53988 6.19238 7.91292 6.59726 7.25521 7.25497C6.63175 7.86151 6.15193 8.59991 5.85096 9.41601C5.593 10.0788 5.28721 11.0731 5.2035 12.9061C5.11296 14.8878 5.09417 15.4823 5.09417 20.4997C5.09417 25.517 5.11296 26.1115 5.2035 28.0932C5.28721 29.9263 5.593 30.9205 5.85096 31.5833C6.15163 32.3982 6.63167 33.1379 7.25521 33.7444C7.86167 34.3679 8.60138 34.848 9.41625 35.1486C10.0791 35.4066 11.0733 35.7124 12.9064 35.7961C14.888 35.8866 15.4808 35.9054 20.4999 35.9054C25.519 35.9054 26.1118 35.8866 28.0935 35.7961C29.9265 35.7124 30.9208 35.4066 31.5836 35.1486C32.46 34.807 33.0869 34.4021 33.7446 33.7444C34.3682 33.1379 34.8482 32.3982 35.1489 31.5833C35.4068 30.9205 35.7126 29.9263 35.7963 28.0932C35.8869 26.1115 35.9057 25.517 35.9057 20.4997C35.9057 15.4823 35.8869 14.8878 35.7963 12.9061C35.7126 11.0731 35.4068 10.0788 35.1489 9.41601C34.8072 8.53963 34.4023 7.91267 33.7446 7.25497C33.138 6.63155 32.3997 6.15174 31.5836 5.85072C30.9208 5.59276 29.9265 5.28697 28.0935 5.20326ZM18.0997 26.2926C19.4402 26.8506 20.9328 26.9259 22.3226 26.5057C23.7124 26.0855 24.9132 25.1957 25.7199 23.9885C26.5266 22.7813 26.8892 21.3314 26.7457 19.8866C26.6021 18.4417 25.9615 17.0915 24.933 16.0665C24.2774 15.4114 23.4847 14.9097 22.612 14.5976C21.7392 14.2856 20.8082 14.1709 19.8858 14.2619C18.9634 14.3529 18.0726 14.6472 17.2777 15.1238C16.4827 15.6003 15.8033 16.2472 15.2883 17.0178C14.7733 17.7885 14.4357 18.6637 14.2995 19.5805C14.1634 20.4973 14.2323 21.4329 14.5012 22.3199C14.77 23.2069 15.2322 24.0233 15.8545 24.7102C16.4767 25.3972 17.2435 25.9376 18.0997 26.2926ZM13.67 13.6698C14.5669 12.7728 15.6317 12.0614 16.8036 11.576C17.9755 11.0906 19.2315 10.8407 20.4999 10.8407C21.7684 10.8407 23.0244 11.0905 24.1962 11.576C25.3681 12.0614 26.4329 12.7728 27.3298 13.6698C28.2268 14.5667 28.9382 15.6315 29.4236 16.8033C29.909 17.9752 30.1589 19.2312 30.1589 20.4997C30.1589 21.7681 29.909 23.0241 29.4236 24.196C28.9382 25.3679 28.2268 26.4327 27.3298 27.3296C25.5184 29.141 23.0616 30.1586 20.4999 30.1586C17.9382 30.1586 15.4814 29.141 13.67 27.3296C11.8586 25.5182 10.841 23.0614 10.841 20.4997C10.841 17.938 11.8586 15.4812 13.67 13.6698ZM32.3011 12.2792C32.5233 12.0695 32.7013 11.8174 32.8244 11.5377C32.9474 11.258 33.0131 10.9565 33.0176 10.651C33.022 10.3455 32.9652 10.0422 32.8503 9.75906C32.7354 9.47592 32.5649 9.21871 32.3489 9.00266C32.1328 8.7866 31.8756 8.61609 31.5925 8.50122C31.3093 8.38636 31.006 8.32947 30.7005 8.33392C30.395 8.33837 30.0935 8.40408 29.8138 8.52716C29.5341 8.65023 29.282 8.82816 29.0723 9.05042C28.6646 9.48268 28.4413 10.0568 28.45 10.651C28.4587 11.2452 28.6985 11.8126 29.1187 12.2328C29.5389 12.653 30.1063 12.8929 30.7005 12.9015C31.2947 12.9102 31.8688 12.6869 32.3011 12.2792Z" fill="white"/>
</svg>
