<svg width="39" height="39" viewBox="0 0 39 39" fill="none" xmlns="http://www.w3.org/2000/svg">
<g clip-path="url(#clip0)">
<path fill-rule="evenodd" clip-rule="evenodd" d="M38.1062 9.6655C38.376 8.77825 38.1062 8.125 36.8144 8.125H32.5487C31.4632 8.125 30.9627 8.68888 30.6914 9.31125C30.6914 9.31125 28.522 14.5048 25.4491 17.8783C24.4546 18.8565 24.0029 19.1669 23.4601 19.1669C23.1887 19.1669 22.7809 18.8565 22.7809 17.9676V9.6655C22.7809 8.5995 22.4819 8.125 21.5784 8.125H14.8704C14.1927 8.125 13.7849 8.619 13.7849 9.08862C13.7849 10.0978 15.3221 10.3317 15.4797 13.1723V19.344C15.4797 20.6976 15.2311 20.943 14.6884 20.943C13.2421 20.943 9.724 15.7251 7.63587 9.75487C7.23125 8.593 6.82175 8.125 5.73137 8.125H1.4625C0.24375 8.125 0 8.68888 0 9.31125C0 10.4195 1.44625 15.925 6.73562 23.2066C10.2619 28.1791 15.2262 30.875 19.7486 30.875C22.4607 30.875 22.7955 30.277 22.7955 29.2451V25.4865C22.7955 24.2889 23.0522 24.05 23.9119 24.05C24.5456 24.05 25.6295 24.362 28.1612 26.7589C31.0537 29.601 31.5299 30.875 33.1581 30.875H37.4237C38.6425 30.875 39.2535 30.277 38.9025 29.094C38.5157 27.9175 37.1345 26.2096 35.3031 24.1833C34.3086 23.0295 32.8169 21.7864 32.3635 21.164C31.7314 20.3661 31.9117 20.0103 32.3635 19.3001C32.3635 19.3001 37.5635 12.1079 38.1046 9.6655H38.1062Z" fill="white"/>
</g>
<defs>
<clipPath id="clip0">
<rect width="39" height="39" fill="white"/>
</clipPath>
</defs>
</svg>
