<svg width="47" height="47" viewBox="0 0 47 47" fill="none" xmlns="http://www.w3.org/2000/svg">
<path d="M44.0625 23.3718C44.0625 23.2708 44.0625 23.1561 44.0579 23.023C44.0533 22.6512 44.0441 22.2335 44.035 21.7883C43.9982 20.5077 43.934 19.2317 43.833 18.0292C43.6953 16.3723 43.4934 14.9907 43.218 13.9534C42.9274 12.8709 42.3577 11.8836 41.5659 11.0903C40.7742 10.2969 39.7881 9.72524 38.7062 9.43242C37.4072 9.08359 34.8645 8.86787 31.2844 8.73477C29.5815 8.67051 27.7594 8.6292 25.9372 8.60625C25.2992 8.59707 24.7071 8.59248 24.1747 8.58789H22.8253C22.2929 8.59248 21.7008 8.59707 21.0628 8.60625C19.2406 8.6292 17.4185 8.67051 15.7156 8.73477C12.1355 8.87246 9.58818 9.08818 8.29385 9.43242C7.21157 9.72452 6.22506 10.2959 5.4332 11.0894C4.64134 11.8829 4.07193 12.8705 3.78203 13.9534C3.50205 14.9907 3.30469 16.3723 3.16699 18.0292C3.06602 19.2317 3.00176 20.5077 2.96504 21.7883C2.95127 22.2335 2.94668 22.6512 2.94209 23.023C2.94209 23.1561 2.9375 23.2708 2.9375 23.3718V23.6288C2.9375 23.7298 2.9375 23.8445 2.94209 23.9776C2.94668 24.3494 2.95586 24.7671 2.96504 25.2123C3.00176 26.4929 3.06602 27.7689 3.16699 28.9714C3.30469 30.6283 3.50664 32.0099 3.78203 33.0472C4.36953 35.2457 6.09531 36.9807 8.29385 37.5682C9.58818 37.917 12.1355 38.1327 15.7156 38.2658C17.4185 38.3301 19.2406 38.3714 21.0628 38.3943C21.7008 38.4035 22.2929 38.4081 22.8253 38.4127H24.1747C24.7071 38.4081 25.2992 38.4035 25.9372 38.3943C27.7594 38.3714 29.5815 38.3301 31.2844 38.2658C34.8645 38.1281 37.4118 37.9124 38.7062 37.5682C40.9047 36.9807 42.6305 35.2503 43.218 33.0472C43.4979 32.0099 43.6953 30.6283 43.833 28.9714C43.934 27.7689 43.9982 26.4929 44.035 25.2123C44.0487 24.7671 44.0533 24.3494 44.0579 23.9776C44.0579 23.8445 44.0625 23.7298 44.0625 23.6288V23.3718ZM40.7578 23.6105C40.7578 23.7068 40.7578 23.8124 40.7532 23.9363C40.7486 24.2943 40.7395 24.6891 40.7303 25.1159C40.6981 26.3368 40.6339 27.5577 40.5375 28.6914C40.4136 30.1693 40.2392 31.3811 40.0234 32.1935C39.7389 33.2537 38.9035 34.0937 37.8479 34.3736C36.884 34.6307 34.456 34.8372 31.1559 34.9611C29.4852 35.0254 27.6859 35.0667 25.8913 35.0897C25.2625 35.0988 24.6796 35.1034 24.1563 35.1034H22.8437L21.1087 35.0897C19.3141 35.0667 17.5194 35.0254 15.8441 34.9611C12.544 34.8326 10.1114 34.6307 9.15215 34.3736C8.09648 34.0891 7.26113 33.2537 6.97656 32.1935C6.76084 31.3811 6.58643 30.1693 6.4625 28.6914C6.36611 27.5577 6.30645 26.3368 6.26973 25.1159C6.25596 24.6891 6.25137 24.2897 6.24678 23.9363C6.24678 23.8124 6.24219 23.7022 6.24219 23.6105V23.3901C6.24219 23.2938 6.24219 23.1882 6.24678 23.0643C6.25137 22.7063 6.26055 22.3115 6.26973 21.8847C6.30186 20.6638 6.36611 19.4429 6.4625 18.3092C6.58643 16.8313 6.76084 15.6195 6.97656 14.8071C7.26113 13.7469 8.09648 12.9069 9.15215 12.627C10.116 12.3699 12.544 12.1634 15.8441 12.0395C17.5148 11.9752 19.3141 11.9339 21.1087 11.9109C21.7375 11.9018 22.3204 11.8972 22.8437 11.8972H24.1563L25.8913 11.9109C27.6859 11.9339 29.4806 11.9752 31.1559 12.0395C34.456 12.168 36.8886 12.3699 37.8479 12.627C38.9035 12.9115 39.7389 13.7469 40.0234 14.8071C40.2392 15.6195 40.4136 16.8313 40.5375 18.3092C40.6339 19.4429 40.6936 20.6638 40.7303 21.8847C40.744 22.3115 40.7486 22.7108 40.7532 23.0643C40.7532 23.1882 40.7578 23.2983 40.7578 23.3901V23.6105ZM19.415 29.6507L30.0635 23.4544L19.415 17.3499V29.6507Z" fill="white"/>
</svg>
