<svg width="59" height="59" viewBox="0 0 59 59" fill="none" xmlns="http://www.w3.org/2000/svg">
<g clip-path="url(#clip0)">
<path d="M52.0834 39.3998C50.4976 43.6977 48.0992 47.4347 44.9541 50.506C41.3742 54.0017 36.6865 56.7795 31.0211 58.761C30.8352 58.8258 30.6412 58.8789 30.4463 58.9181C30.1888 58.9689 29.9269 58.9964 29.6671 59H29.6163C29.3394 59 29.0612 58.9721 28.7853 58.9181C28.5904 58.8789 28.3991 58.8258 28.2141 58.7623C22.5419 56.784 17.8484 54.0076 14.2649 50.5118C11.1184 47.4406 8.72056 43.7058 7.13699 39.4079C4.25748 31.5936 4.42132 22.9852 4.55321 16.0675L4.55546 15.9613C4.58202 15.3901 4.59913 14.79 4.60858 14.1274C4.65674 10.8743 7.24322 8.18296 10.4968 8.00156C17.2803 7.623 22.528 5.41059 27.0118 1.04023L27.0509 1.00422C27.7955 0.321364 28.7335 -0.0135356 29.6671 0.000418636C30.5674 0.0121222 31.4641 0.346572 32.182 1.00422L32.2203 1.04023C36.705 5.41059 41.9526 7.623 48.7362 8.00156C51.9897 8.18296 54.5762 10.8743 54.6244 14.1274C54.6338 14.7945 54.6509 15.3937 54.6775 15.9613L54.6789 16.0063C54.8103 22.937 54.9732 31.5625 52.0834 39.3998Z" fill="#00DD80"/>
<path d="M52.0833 39.3999C50.4974 43.6978 48.0991 47.4348 44.954 50.506C41.3741 54.0018 36.6864 56.7796 31.021 58.7611C30.8351 58.8259 30.6411 58.879 30.4462 58.9182C30.1887 58.969 29.9267 58.9965 29.667 59.0001V0.000488281C30.5673 0.0121918 31.4639 0.346642 32.1819 1.00429L32.2202 1.0403C36.7048 5.41066 41.9525 7.62307 48.736 8.00163C51.9896 8.18304 54.5761 10.8744 54.6243 14.1275C54.6337 14.7946 54.6508 15.3937 54.6774 15.9614L54.6787 16.0064C54.8102 22.9371 54.9731 31.5626 52.0833 39.3999Z" fill="#00AA63"/>
<path d="M44.3193 29.5C44.3193 37.5903 37.7505 44.1757 29.667 44.2046H29.6152C21.5078 44.2046 14.9106 37.6078 14.9106 29.5C14.9106 21.3926 21.5078 14.7959 29.6152 14.7959H29.667C37.7505 14.8247 44.3193 21.4102 44.3193 29.5Z" fill="white"/>
<path d="M44.3193 29.5C44.3193 37.5903 37.7505 44.1757 29.667 44.2046V14.7959C37.7505 14.8247 44.3193 21.4102 44.3193 29.5Z" fill="#E1EBF0"/>
<path d="M36.2893 27.3825L29.6669 34.0058L28.2359 35.4368C27.8979 35.7748 27.4545 35.9436 27.0116 35.9436C26.5682 35.9436 26.1253 35.7748 25.7867 35.4368L22.7101 32.3587C22.034 31.6826 22.034 30.5875 22.7101 29.9109C23.3853 29.2348 24.4818 29.2348 25.1579 29.9109L27.0116 31.7646L33.8415 24.9347C34.5176 24.2581 35.6141 24.2581 36.2893 24.9347C36.9654 25.6108 36.9654 26.7073 36.2893 27.3825Z" fill="#B4D2D7"/>
<path d="M36.2894 27.3825L29.667 34.0058V29.1088L33.8415 24.9347C34.5176 24.2581 35.6142 24.2581 36.2894 24.9347C36.9655 25.6108 36.9655 26.7073 36.2894 27.3825Z" fill="#6FA5AA"/>
</g>
<defs>
<clipPath id="clip0">
<rect width="59" height="59" fill="white"/>
</clipPath>
</defs>
</svg>
