<svg width="56" height="56" viewBox="0 0 56 56" fill="none" xmlns="http://www.w3.org/2000/svg">
<path d="M40.3125 40.8008C41.4785 39.5745 42.227 37.947 42.316 36.152C42.3674 35.1142 42.2007 34.1218 41.8591 33.2151C41.6229 32.5884 41.7668 31.8886 42.2312 31.4059C43.4932 30.0943 44.2694 28.3119 44.2694 26.348C44.2694 22.6521 41.5216 19.5991 37.9576 19.1177C37.5317 19.0602 37.1438 18.8495 36.8654 18.5221C35.5271 16.9488 33.534 15.95 31.3066 15.95C29.3372 15.95 27.5511 16.731 26.2387 17.9994C25.7997 18.4236 25.1679 18.5671 24.5808 18.4008C23.9759 18.2295 23.3379 18.1374 22.678 18.1374C19.4631 18.1374 16.7558 20.3063 15.937 23.2605C15.7701 23.8626 15.2741 24.321 14.662 24.4458C12.6426 24.8574 10.9908 26.4757 10.6387 28.6305C10.1836 31.4158 12.0726 34.0428 14.8579 34.4979C14.8987 34.5046 14.9394 34.5108 14.9801 34.5164C15.5558 34.5962 16.0485 34.9707 16.2847 35.5017C17.3735 37.9502 19.8257 39.6579 22.6781 39.6579C23.9978 39.6579 25.2317 39.2922 26.2848 38.6568C27.0984 38.166 28.1683 38.4511 28.6249 39.2845C29.8996 41.611 32.4046 43.1673 35.2651 43.0764C35.8938 43.0565 36.5031 42.9539 37.0837 42.782L39.4065 42.0792L40.3125 40.8008Z" fill="#F3F1F0"/>
<path d="M21.8369 36.6289C21.6007 36.0979 21.1081 35.7235 20.5323 35.6436C20.4916 35.638 20.4509 35.6319 20.4101 35.6251C17.6248 35.17 15.7358 32.5431 16.1909 29.7577C16.543 27.6029 18.1948 25.9846 20.2142 25.573C20.8263 25.4482 21.3225 24.9898 21.4892 24.3877C22.308 21.4335 25.0153 19.2646 28.2302 19.2646C28.89 19.2646 29.528 19.3567 30.133 19.528C30.7202 19.6943 31.3521 19.5508 31.7909 19.1266C32.7747 18.1758 34.0247 17.4989 35.4184 17.2195C34.2478 16.4187 32.8323 15.9497 31.3066 15.9497C29.3372 15.9497 27.5511 16.7308 26.2387 17.9992C25.7998 18.4233 25.1679 18.5668 24.5808 18.4005C23.9759 18.2293 23.3379 18.1372 22.678 18.1372C19.4631 18.1372 16.7558 20.306 15.937 23.2603C15.7701 23.8623 15.2741 24.3207 14.662 24.4455C12.6426 24.8572 10.9908 26.4755 10.6387 28.6303C10.1836 31.4156 12.0726 34.0425 14.8579 34.4977C14.8987 34.5043 14.9394 34.5105 14.9801 34.5162C15.5558 34.596 16.0485 34.9704 16.2847 35.5015C17.3735 37.9499 19.8257 39.6577 22.6781 39.6577C23.1947 39.6577 23.6979 39.6008 24.1826 39.4945C23.1654 38.771 22.3498 37.7823 21.8369 36.6289Z" fill="#E6DFDD"/>
<path d="M38.6214 43.568C39.6715 43.568 40.5227 42.7168 40.5227 41.6667C40.5227 40.6166 39.6715 39.7654 38.6214 39.7654C37.5713 39.7654 36.7201 40.6166 36.7201 41.6667C36.7201 42.7168 37.5713 43.568 38.6214 43.568Z" fill="#E5DFDD"/>
<path d="M13.6824 18.9663C14.7256 18.9663 15.5714 18.1205 15.5714 17.0773C15.5714 16.034 14.7256 15.1882 13.6824 15.1882C12.6391 15.1882 11.7933 16.034 11.7933 17.0773C11.7933 18.1205 12.6391 18.9663 13.6824 18.9663Z" fill="#E5DFDD"/>
<path d="M28 0C43.464 0 56 12.536 56 28C56 43.464 43.464 56 28 56C12.536 56 0 43.464 0 28C0 12.536 12.536 0 28 0ZM49.9704 35.0217C52.4091 26.7948 50.3763 18.9478 45.7335 13.3388C45.3851 12.9182 44.7448 12.9058 44.3817 13.314L15.3061 45.9725C14.9442 46.3795 15.0277 47.0143 15.4843 47.3097C20.7787 50.7495 27.5761 52.0697 34.6767 50.0697C42.0051 48.0053 47.8058 42.3208 49.9704 35.0217ZM40.6939 10.0275C41.0558 9.62045 40.9712 8.98571 40.5157 8.69032C35.2201 5.25049 28.4228 3.93026 21.3233 5.93034C13.9949 7.99468 8.19311 13.6792 6.02955 20.9783C3.5909 29.2052 5.62368 37.0522 10.2665 42.6612C10.6137 43.0818 11.2552 43.0942 11.6172 42.686L40.6939 10.0275Z" fill="#E17983"/>
<path d="M36.7202 36.5234H36.1498C35.6828 36.5234 35.3042 36.145 35.3042 35.6779C35.3042 35.2108 35.6828 34.8323 36.1498 34.8323H36.7202C37.1871 34.8323 37.5657 35.2108 37.5657 35.6779C37.5657 36.145 37.1871 36.5234 36.7202 36.5234Z" fill="#E5DFDD"/>
<path d="M18.172 29.4934H17.3134C16.8464 29.4934 16.4678 29.1149 16.4678 28.6478C16.4678 28.1807 16.8464 27.8022 17.3134 27.8022H18.172C18.639 27.8022 19.0176 28.1807 19.0176 28.6478C19.0176 29.1149 18.639 29.4934 18.172 29.4934Z" fill="#EDE2DD"/>
<path d="M37.0084 27.8835H36.1498C35.6828 27.8835 35.3042 27.5051 35.3042 27.038C35.3042 26.5709 35.6828 26.1924 36.1498 26.1924H37.0084C37.4754 26.1924 37.854 26.5709 37.854 27.038C37.854 27.5051 37.4754 27.8835 37.0084 27.8835Z" fill="#E5DFDD"/>
<path d="M45.2272 20.616H44.7494C44.2824 20.616 43.9038 20.2375 43.9038 19.7704C43.9038 19.3033 44.2824 18.9248 44.7494 18.9248H45.2272C45.6942 18.9248 46.0728 19.3033 46.0728 19.7704C46.0728 20.2375 45.6942 20.616 45.2272 20.616Z" fill="#F2EAE7"/>
<path d="M28.2706 46.8879H26.8392C26.3722 46.8879 25.9937 46.5095 25.9937 46.0424C25.9937 45.5753 26.3722 45.1968 26.8392 45.1968H28.2706C28.7376 45.1968 29.1162 45.5753 29.1162 46.0424C29.1162 46.5095 28.7376 46.8879 28.2706 46.8879Z" fill="#F2EAE7"/>
<path d="M32.1268 33.8147H30.7683C30.3013 33.8147 29.9227 33.4362 29.9227 32.9691C29.9227 32.502 30.3013 32.1235 30.7683 32.1235H32.1268C32.5938 32.1235 32.9723 32.502 32.9723 32.9691C32.9723 33.4362 32.5938 33.8147 32.1268 33.8147Z" fill="#E5DFDD"/>
<path d="M23.989 23.8606H22.4093C21.9423 23.8606 21.5637 23.4821 21.5637 23.015C21.5637 22.5479 21.9423 22.1694 22.4093 22.1694H23.989C24.4559 22.1694 24.8345 22.5479 24.8345 23.015C24.8345 23.4821 24.4559 23.8606 23.989 23.8606Z" fill="#EDE2DD"/>
</svg>
