<svg width="58" height="58" viewBox="0 0 58 58" fill="none" xmlns="http://www.w3.org/2000/svg">
<g clip-path="url(#clip0)">
<path d="M57.4103 3.59003C57.0398 3.21017 56.5309 2.9972 56.0003 3.00003H2.00027C1.46968 2.9972 0.960733 3.21017 0.590272 3.59003C0.210413 3.96049 -0.00255122 4.46944 0.000271854 5.00003V47C-0.00255122 47.5306 0.210413 48.0396 0.590272 48.41C0.960733 48.7899 1.46968 49.0029 2.00027 49H55.0003C56.6571 49 58.0003 47.6569 58.0003 46V5.00003C58.0031 4.46944 57.7901 3.96049 57.4103 3.59003Z" fill="#F3D55B"/>
<path d="M58 4.99984V45.9998C58.0001 46.7954 57.6834 47.5582 57.12 48.1198L53 43.9998V7.99984L57.41 3.58984C57.7899 3.9603 58.0028 4.46925 58 4.99984Z" fill="#F0C419"/>
<path d="M5.00003 7.99984V43.9998L0.590028 48.4098C0.210169 48.0394 -0.00279536 47.5304 2.77136e-05 46.9998V4.99984C-0.00279536 4.46925 0.210169 3.9603 0.590028 3.58984L5.00003 7.99984Z" fill="#F0C419"/>
<path d="M57.1201 48.12C56.5585 48.6834 55.7956 49.0001 55.0001 49H2.00009C1.4695 49.0028 0.960549 48.7899 0.590088 48.41L5.00009 44H53.0001L57.1201 48.12Z" fill="#F29C1F"/>
<path d="M5 8H53V44H5V8Z" fill="#ECF0F1"/>
<path d="M53 8C53 8 5 8 5 44V8H53Z" fill="white"/>
<path d="M36 15H22C21.4477 15 21 14.5523 21 14C21 13.4477 21.4477 13 22 13H36C36.5523 13 37 13.4477 37 14C37 14.5523 36.5523 15 36 15Z" fill="#BDC3C7"/>
<path d="M26 37H12C11.4477 37 11 36.5523 11 36C11 35.4477 11.4477 35 12 35H26C26.5523 35 27 35.4477 27 36C27 36.5523 26.5523 37 26 37Z" fill="#95A5A5"/>
<path d="M39.0001 20H19.0001C18.4478 20 18.0001 19.5523 18.0001 19C18.0001 18.4477 18.4478 18 19.0001 18H39.0001C39.5524 18 40.0001 18.4477 40.0001 19C40.0001 19.5523 39.5524 20 39.0001 20Z" fill="#BDC3C7"/>
<path d="M35 40.4001L35 53.3801C34.9976 53.7285 35.1766 54.053 35.4726 54.2368C35.7686 54.4205 36.1389 54.4369 36.45 54.2801L39.05 52.9701C39.3337 52.8302 39.6664 52.8302 39.95 52.9701L42.55 54.2801C42.8611 54.4369 43.2314 54.4205 43.5274 54.2368C43.8234 54.053 44.0025 53.7285 44 53.3801L44.0001 40.4001H35Z" fill="#FF5364"/>
<path d="M26 33C23.5514 33 21.1441 32.3683 19.011 31.166C16.8743 32.3792 14.4571 33.0115 12 33C11.4477 33 11 32.5523 11 32C11 31.4477 11.4477 31 12 31C13.7924 31.0079 15.5643 30.6183 17.188 29.859C16.1501 29.0634 15.4863 27.8749 15.353 26.574C15.353 25.974 15.616 24 19 24C22.384 24 22.647 25.97 22.647 26.574C22.5144 27.8766 21.851 29.067 20.813 29.865C22.4373 30.6208 24.2085 31.0084 26 31C26.5523 31 27 31.4477 27 32C27 32.5523 26.5523 33 26 33ZM19 26C18.24 26 17.353 26.15 17.353 26.574C17.353 26.998 17.802 27.852 18.992 28.768C20.056 27.954 20.647 27.103 20.647 26.574C20.647 26.15 19.76 26 19 26Z" fill="#95A5A5"/>
<path d="M49 33.5C49 34.653 46.847 35.368 46.431 36.371C46 37.41 47 39.435 46.217 40.218C45.434 41.001 43.409 40.001 42.371 40.431C41.368 40.847 40.653 43 39.5 43C38.347 43 37.632 40.847 36.629 40.431C35.59 40 33.565 41 32.782 40.217C31.999 39.434 32.999 37.409 32.569 36.371C32.153 35.368 30 34.653 30 33.5C30 32.347 32.153 31.632 32.569 30.629C33 29.59 32 27.565 32.783 26.782C33.566 25.999 35.591 26.999 36.629 26.569C37.629 26.153 38.347 24 39.5 24C40.653 24 41.368 26.153 42.371 26.569C43.41 27 45.435 26 46.218 26.783C47.001 27.566 46.001 29.591 46.431 30.629C46.847 31.632 49 32.347 49 33.5Z" fill="#FB7B76"/>
<path d="M39.5001 37C41.4331 37 43.0001 35.433 43.0001 33.5C43.0001 31.567 41.4331 30 39.5001 30C37.5671 30 36.0001 31.567 36.0001 33.5C36.0001 35.433 37.5671 37 39.5001 37Z" fill="#DF4D60"/>
</g>
<defs>
<clipPath id="clip0">
<rect width="58" height="58" fill="white"/>
</clipPath>
</defs>
</svg>
