<svg width="61" height="61" viewBox="0 0 61 61" fill="none" xmlns="http://www.w3.org/2000/svg">
<path d="M18.4614 21.3966L10.3564 6.20259C9.89188 5.33167 10.2213 4.24916 11.0921 3.78463C11.963 3.3201 13.0454 3.64952 13.5101 4.52032L21.6152 19.7143C22.0797 20.5852 21.7503 21.6678 20.8795 22.1323C20.0091 22.5966 18.9263 22.2679 18.4614 21.3966Z" fill="#FEDB41"/>
<path d="M25.1265 22.3429C23.7874 22.3429 22.9147 20.9079 23.5513 19.7143L31.6564 4.52032C32.1209 3.64952 33.2032 3.3201 34.0744 3.78463C34.9452 4.24916 35.2746 5.33167 34.8101 6.20259L26.7049 21.3966C26.3834 21.9996 25.7654 22.3429 25.1265 22.3429Z" fill="#FCBF29"/>
<path d="M23.5504 3.79284L22.5831 0C21.5966 0 20.796 0.800625 20.796 1.78711V20.5553C20.796 21.9691 22.3656 22.8219 23.5504 22.0564V3.79284Z" fill="#FEDB41"/>
<path d="M24.3702 1.78711V20.5553C24.3702 21.5418 23.5696 22.3424 22.5831 22.3424V0C23.5696 0 24.3702 0.800625 24.3702 1.78711Z" fill="#FCBF29"/>
<path d="M27.2635 29.3372H14.2659C13.9657 30.6024 13.3128 31.7795 12.3859 32.7041C11.0503 34.0408 9.27394 34.7759 7.38556 34.7759C3.67195 34.7759 0.651733 37.7973 0.651733 41.5097V45.1686L4.26527 47.6419H27.2633V29.3372H27.2635Z" fill="#EEF5F6"/>
<path d="M44.2333 39.7798C44.2381 39.9014 43.7163 42.1793 43.011 45.1686C42.8263 45.9525 42.6285 46.7865 42.4248 47.6419H22.5831V29.3372H30.9003C31.2006 30.6024 31.8535 31.7795 32.7792 32.7041C34.1159 34.0408 35.8911 34.7759 37.7807 34.7759C39.5773 34.7759 41.2691 35.4765 42.5416 36.7477C43.254 37.4602 44.1642 38.8398 44.2333 39.7798Z" fill="#D6EAEC"/>
<path d="M34.1171 20.5552V28.895C34.1171 29.8815 33.3165 30.6821 32.33 30.6821H12.8362C11.8497 30.6821 11.0491 29.8815 11.0491 28.895V20.5552C11.0491 19.5687 11.8497 18.7681 12.8362 18.7681H32.33C33.3165 18.7681 34.1171 19.5687 34.1171 20.5552Z" fill="#6F4D80"/>
<path d="M25.0385 49.2583L22.5831 45.1685H0.651733V53.2283C0.651733 57.5138 4.13779 60.9999 8.42328 60.9999H22.5831L25.0385 57.1632V49.2583Z" fill="#D599ED"/>
<path d="M32.33 30.6821H22.5831V18.7681H32.33C33.3165 18.7681 34.1171 19.5687 34.1171 20.5552V28.895C34.1171 29.8815 33.3165 30.6821 32.33 30.6821Z" fill="#523D66"/>
<path d="M43.011 45.1685L37.7843 60.9987L22.5831 60.9999V45.1685H43.011Z" fill="#AD77E3"/>
<path d="M45.7834 33.4143C45.3855 33.4143 44.9876 33.5477 44.6588 33.8122C42.6679 35.4337 40.5937 38.3181 40.3494 41.224C37.5318 40.5056 34.1446 41.585 32.0322 42.9539C31.3269 43.4126 31.0362 44.299 31.3341 45.0853C31.5569 45.6989 32.2896 47.1703 33.2808 48.426C34.365 49.7985 35.5921 50.7743 36.9325 51.3331C34.9655 54.5332 35.803 58.7007 36.002 59.5442C36.2307 60.4831 36.9885 60.9811 37.7605 61.0001C39.8776 61.0001 43.8021 59.8897 45.7834 57.3282L50.398 46.9438L45.7834 33.4143Z" fill="#FF7CB7"/>
<path d="M60.229 45.0925C60.1539 45.2914 58.4026 49.7544 54.633 51.3331C56.7727 54.8155 55.5885 59.462 55.5349 59.6669C55.3204 60.4831 54.5651 61.0383 53.7215 60.9978C53.5023 60.9882 48.4019 60.7082 45.7832 57.3282V33.4143C46.1811 33.4143 46.5791 33.5477 46.9079 33.8122C47.0759 33.9492 50.8646 37.0612 51.2172 41.224C55.2334 40.2029 59.3545 42.8371 59.5344 42.9539C60.2421 43.4138 60.5316 44.305 60.229 45.0925Z" fill="#FF5E94"/>
</svg>
